<svg width="0" height="0">
   <symbol viewBox="0 0 24 44" xmlns="http://www.w3.org/2000/svg" id="instagram">
      <path fill-rule="evenodd" clip-rule="evenodd" d="M12 13C9.55575 13 9.24975 13.0105 8.28975 13.054C5.02125 13.204 3.20475 15.0175 3.05475 18.289C3.0105 19.2498 3 19.5557 3 22C3 24.4443 3.0105 24.751 3.054 25.711C3.204 28.9795 5.0175 30.796 8.289 30.946C9.24975 30.9895 9.55575 31 12 31C14.4443 31 14.751 30.9895 15.711 30.946C18.9765 30.796 20.7975 28.9825 20.9452 25.711C20.9895 24.751 21 24.4443 21 22C21 19.5557 20.9895 19.2498 20.946 18.2898C20.799 15.0243 18.9832 13.2048 15.7118 13.0547C14.751 13.0105 14.4443 13 12 13ZM12 14.6222C14.403 14.6222 14.688 14.6312 15.6375 14.6747C18.0765 14.7857 19.2157 15.943 19.3267 18.364C19.3703 19.3127 19.3785 19.5977 19.3785 22.0007C19.3785 24.4045 19.3695 24.6888 19.3267 25.6375C19.215 28.0563 18.0787 29.2157 15.6375 29.3267C14.688 29.3703 14.4045 29.3792 12 29.3792C9.597 29.3792 9.312 29.3703 8.36325 29.3267C5.91825 29.215 4.785 28.0525 4.674 25.6367C4.6305 24.688 4.6215 24.4037 4.6215 22C4.6215 19.597 4.63125 19.3127 4.674 18.3632C4.78575 15.943 5.922 14.785 8.36325 14.674C9.31275 14.6312 9.597 14.6222 12 14.6222ZM7.3785 22C7.3785 19.4478 9.44775 17.3785 12 17.3785C14.5522 17.3785 16.6215 19.4478 16.6215 22C16.6215 24.553 14.5522 26.6222 12 26.6222C9.44775 26.6222 7.3785 24.5522 7.3785 22ZM12 25C10.3433 25 9 23.6575 9 22C9 20.3433 10.3433 19 12 19C13.6567 19 15 20.3433 15 22C15 23.6575 13.6567 25 12 25ZM15.7238 17.1962C15.7238 16.6 16.2075 16.1163 16.8045 16.1163C17.4008 16.1163 17.8837 16.6 17.8837 17.1962C17.8837 17.7925 17.4008 18.2762 16.8045 18.2762C16.2075 18.2762 15.7238 17.7925 15.7238 17.1962Z"/>
  </symbol> 
  <symbol viewBox="0 0 24 44" xmlns="http://www.w3.org/2000/svg" id="twitter">
      <path fill-rule="evenodd" clip-rule="evenodd" d="M21 16.7758C20.3378 17.0773 19.626 17.2803 18.879 17.3718C19.6417 16.9035 20.2275 16.1613 20.5028 15.2769C19.7895 15.7106 18.999 16.0259 18.1575 16.1959C17.4848 15.4599 16.524 15 15.462 15C13.0777 15 11.3258 17.2811 11.8643 19.649C8.796 19.4914 6.075 17.984 4.25325 15.6929C3.28575 17.3949 3.7515 19.6214 5.3955 20.7488C4.791 20.7288 4.221 20.5589 3.72375 20.2751C3.68325 22.0293 4.9095 23.6705 6.6855 24.0358C6.16575 24.1804 5.5965 24.2143 5.0175 24.1004C5.487 25.6047 6.8505 26.6991 8.4675 26.7299C6.915 27.9781 4.959 28.5357 3 28.2988C4.63425 29.3732 6.576 30 8.661 30C15.5175 30 19.3912 24.062 19.1572 18.7362C19.8787 18.2017 20.505 17.5349 21 16.7758Z"/>
   </symbol> 
   <symbol viewBox="0 0 24 44" xmlns="http://www.w3.org/2000/svg" id="facebook">
      <path fill-rule="evenodd" clip-rule="evenodd" d="M9.75 19H7.5V22H9.75V31H13.5V22H16.2315L16.5 19H13.5V17.7498C13.5 17.0335 13.644 16.75 14.3362 16.75H16.5V13H13.644C10.947 13 9.75 14.1873 9.75 16.4613V19Z"/>
   </symbol> 

   <symbol viewBox="0 0 60 60" xmlns="http://www.w3.org/2000/svg" id="sml_settings">
      <path fill-rule="evenodd" clip-rule="evenodd" d="M49.281 35.5815L54.874 34.85C54.9577 34.0561 55 33.2681 55 32.5004C55 31.7326 54.9577 30.9447 54.874 30.1497L49.281 29.4182C48.8668 29.3638 48.5292 29.0605 48.4315 28.6545C48.0334 26.998 47.3784 25.4181 46.4855 23.9602C46.2679 23.6045 46.292 23.1501 46.546 22.8196L49.9865 18.344C48.9978 17.1248 47.8843 16.0104 46.6639 15.021L42.1895 18.4588C41.8569 18.7137 41.4035 18.7369 41.0487 18.5193C39.5895 17.6246 38.0084 16.9686 36.3496 16.5686C35.9445 16.4709 35.6412 16.1334 35.5867 15.7202L34.8541 10.1272C33.2659 9.95793 31.7432 9.95793 30.155 10.1252L29.4233 15.7162C29.3689 16.1293 29.0656 16.4679 28.6595 16.5646C26.9987 16.9626 25.4155 17.6185 23.9533 18.5132C23.5965 18.7309 23.1441 18.7067 22.8135 18.4528L18.3371 15.0139C17.7959 15.4542 17.2679 15.9248 16.762 16.4195L16.4052 16.7762C15.9195 17.2729 15.4529 17.7948 15.0146 18.3339L18.454 22.8075C18.708 23.139 18.7321 23.5924 18.5135 23.9481C17.6166 25.4111 16.9595 26.995 16.5594 28.6565C16.4617 29.0625 16.1241 29.3658 15.7109 29.4202L10.1189 30.1517C10.0494 30.8197 10.0101 31.4958 10 32.1719V32.844C10.0101 33.509 10.0494 34.182 10.1179 34.848L15.7109 35.5795C16.1241 35.6339 16.4617 35.9372 16.5594 36.3433C16.9595 38.0058 17.6166 39.5897 18.5135 41.0517C18.7321 41.4083 18.708 41.8617 18.454 42.1922L15.0146 46.6659C15.4529 47.2059 15.9215 47.7299 16.4123 48.2316L16.769 48.5893C17.2699 49.077 17.7959 49.5465 18.3371 49.9868L22.8135 46.547C23.1441 46.293 23.5976 46.2699 23.9533 46.4865C25.4155 47.3812 26.9987 48.0372 28.6595 48.4362C29.0656 48.5329 29.3689 48.8704 29.4233 49.2845L30.155 54.8756C31.7432 55.0418 33.2659 55.0418 34.8541 54.8735L35.5867 49.2805C35.6412 48.8664 35.9445 48.5289 36.3496 48.4311C38.0084 48.0311 39.5895 47.3752 41.0487 46.4815C41.4045 46.2628 41.859 46.287 42.1895 46.5409L46.6639 49.9798C47.8843 48.9903 48.9978 47.8759 49.9865 46.6558L46.546 42.1801C46.292 41.8497 46.2679 41.3962 46.4855 41.0406C47.3784 39.5816 48.0334 38.0027 48.4315 36.3453C48.5292 35.9392 48.8668 35.6359 49.281 35.5815ZM55.8962 28.2541C56.3464 28.3135 56.7009 28.6659 56.7633 29.115C56.9204 30.2579 57 31.3968 57 32.4994C57 33.6021 56.9204 34.7409 56.7633 35.8829C56.7009 36.332 56.3464 36.6854 55.8962 36.7438L50.204 37.488C49.8122 38.8806 49.2573 40.2199 48.5473 41.4836L52.049 46.0381C52.325 46.3976 52.327 46.8981 52.0541 47.2596C50.6864 49.0671 49.076 50.6782 47.2683 52.0457C46.9067 52.3196 46.4072 52.3176 46.0477 52.0417L41.4935 48.5425C40.2286 49.2534 38.8881 49.8102 37.4943 50.202L36.749 55.8943C36.6896 56.3435 36.3381 56.6989 35.8889 56.7613C34.7438 56.9194 33.6028 57 32.496 57C31.3952 57 30.2602 56.9204 29.1221 56.7634C28.673 56.7019 28.3195 56.3465 28.2611 55.8974L27.5158 50.208C26.1199 49.8163 24.7765 49.2594 23.5085 48.5475L18.9544 52.0477C18.5938 52.3236 18.0943 52.3256 17.7327 52.0528C16.9119 51.4325 16.1143 50.7447 15.363 50.0096L14.9914 49.637C14.2521 48.8838 13.5673 48.0893 12.9479 47.2707C12.674 46.9092 12.676 46.4087 12.952 46.0492L16.4517 41.4967C15.7386 40.2289 15.1807 38.8846 14.7869 37.4859L9.09574 36.7418C8.64556 36.6824 8.29106 36.3299 8.22861 35.8808C8.09165 34.889 8.01511 33.8719 8 32.8569V32.1561C8.01511 31.1269 8.09165 30.1089 8.22861 29.118C8.29106 28.6689 8.64556 28.3155 9.09574 28.2571L14.7869 27.5119C15.1807 26.1142 15.7386 24.7699 16.4517 23.5012L12.952 18.9487C12.676 18.5892 12.674 18.0897 12.9479 17.7272C13.5673 16.9085 14.2521 16.115 14.9843 15.3679L15.3549 14.9963C16.1143 14.2532 16.9119 13.5664 17.7327 12.9451C18.0953 12.6722 18.5938 12.6742 18.9544 12.9501L23.5085 16.4504C24.7765 15.7384 26.1199 15.1826 27.5158 14.7909L28.2611 9.1015C28.3195 8.65139 28.673 8.29693 29.1221 8.2345C31.4043 7.92033 33.6048 7.92234 35.8889 8.23752C36.3381 8.29995 36.6896 8.65441 36.749 9.10352L37.4943 14.7959C38.8881 15.1886 40.2286 15.7455 41.4935 16.4564L46.0477 12.9572C46.4072 12.6803 46.9067 12.6793 47.2683 12.9532C49.076 14.3206 50.6864 15.9318 52.0541 17.7393C52.327 18.1008 52.325 18.6012 52.049 18.9597L48.5473 23.5143C49.2573 24.779 49.8122 26.1183 50.204 27.5099L55.8962 28.2541ZM25 32.5C25 36.6353 28.3645 40 32.4995 40C36.6345 40 40 36.6353 40 32.5C40 28.3638 36.6345 25 32.4995 25C28.3645 25 25 28.3638 25 32.5ZM23 32.5C23 27.2617 27.2615 23 32.4995 23C37.7375 23 42 27.2617 42 32.5C42 37.7383 37.7375 42 32.4995 42C27.2615 42 23 37.7383 23 32.5Z" fill="url(#paint0_linear)"/>
   </symbol> 
   <symbol viewBox="0 0 60 60" xmlns="http://www.w3.org/2000/svg" id="sml_chat">
      <path fill-rule="evenodd" clip-rule="evenodd" d="M23.0041 7C14.1546 7 7 14.9192 7 24.6072C7 32.6213 11.4307 39.7536 18 41.9544V51C18 51.8329 18.4794 52.254 19.2909 52.6322C19.3475 52.6586 19.4751 52.7152 19.567 52.756L19.5672 52.7561C19.6172 52.7783 19.6567 52.7958 19.6684 52.8012C19.9601 52.9331 20.2641 53 20.5728 53C21.1036 53 21.6201 52.8031 22.0202 52.4436L33.4166 42.2132H36.9971C45.8457 42.2132 53 34.2948 53 24.6072C53 14.9194 45.8456 7 36.9971 7H23.0041ZM20.3474 50.9141C20.2631 50.8767 20.1701 50.8354 20.1357 50.8194C20.0824 50.7946 20.0372 50.772 20 50.7521V40.449L19.2627 40.2483C13.2282 38.6055 9 32.0719 9 24.6072C9 15.981 15.307 9 23.0041 9H36.9971C44.6931 9 51 15.9812 51 24.6072C51 33.2329 44.6934 40.2132 36.9971 40.2132H32.6506L20.6838 50.9556C20.6513 50.9847 20.6113 51 20.5728 51C20.5513 51 20.5277 50.9948 20.4992 50.9819C20.4771 50.9717 20.415 50.9442 20.3474 50.9141ZM40 25C40 24.448 39.5491 24 38.9914 24H31V16.0086C31 15.4519 30.552 15 30 15C29.447 15 29 15.4519 29 16.0086V24H21.0086C20.4519 24 20 24.448 20 25C20 25.553 20.4519 26 21.0086 26H29V33.9914C29 34.5491 29.447 35 30 35C30.552 35 31 34.5491 31 33.9914V26H38.9914C39.5491 26 40 25.553 40 25Z" fill="url(#paint0_linear)"/>
   </symbol> 
   <symbol viewBox="0 0 60 60" xmlns="http://www.w3.org/2000/svg" id="sml_email">
      <path fill-rule="evenodd" clip-rule="evenodd" d="M49 17.7988V10H15V17.7988L32 31.7079L49 17.7988ZM51 16.1625L52.3758 15.0368C52.251 15.0127 52.1221 15 51.9901 15H51V16.1625ZM51 13H51.9901C52.7726 13 53.5025 13.2236 54.1194 13.6102L54.1407 13.5928L54.1944 13.6584C55.2824 14.3745 56 15.6056 56 17.0043V40.9957C56 43.211 54.2047 45 51.9901 45H12.0099C9.79405 45 8 43.2072 8 40.9957V17.0043C8 15.603 8.71831 14.3723 9.8067 13.6571L9.85928 13.5928L9.88019 13.6099C10.4973 13.2233 11.2274 13 12.0099 13H13V8H51V13ZM13 16.1625V15H12.0099C11.8779 15 11.7489 15.0126 11.6241 15.0367L13 16.1625ZM44 14V16H20V14H44ZM20 18V20H39V18H20ZM10.1008 16.3745C10.0354 16.5725 10 16.7842 10 17.0043V40.9957C10 41.1761 10.0239 41.3509 10.0686 41.5172L23.9115 27.6742L10.1008 16.3745ZM12.0099 43C11.8277 43 11.6513 42.9759 11.4835 42.9307L25.4526 28.9616L25.307 28.8159L32 34.2921L38.9043 28.6431L38.5858 28.9616L52.5467 42.9225C52.37 42.973 52.1833 43 51.9901 43H12.0099ZM53.9395 41.4869C53.979 41.3298 54 41.1652 54 40.9957V17.0043C54 16.7843 53.9645 16.5727 53.899 16.3747L40.1096 27.657L53.9395 41.4869Z" fill="url(#paint0_linear)"/>
   </symbol> 
   <symbol viewBox="0 0 60 60" xmlns="http://www.w3.org/2000/svg" id="sml_favourite">
      <path fill-rule="evenodd" clip-rule="evenodd" d="M40 24.0934H55.6022C56.647 24.1134 57.5627 24.7936 57.8811 25.7838C58.2025 26.764 57.8579 27.8442 57.0217 28.4644L44.8616 37.5263L49.2803 51.8593C49.5856 52.8495 49.229 53.9198 48.3897 54.5299C47.9616 54.84 47.4608 55 46.941 55C46.4443 55 45.9648 54.85 45.5527 54.5699L33.0006 45.9881L20.4496 54.5699C19.6134 55.15 18.4407 55.13 17.6146 54.5299C16.7744 53.9198 16.4157 52.8495 16.721 51.8593L21.1367 37.5263L8.97855 28.4644C8.14336 27.8442 7.7978 26.764 8.11818 25.7838C8.43654 24.7936 9.35233 24.1134 10.3961 24.0934H26L30.6915 9.62034C31.0341 8.65014 31.9619 8 33.0006 8C34.0373 8 34.9652 8.65014 35.3088 9.62034L40 24.0934ZM42.7343 37.4149C42.6103 37.0147 42.7535 36.5745 43.0932 36.3244L55.827 26.8406C55.9742 26.7306 56.0357 26.5405 55.9793 26.3704C55.9218 26.1903 55.7605 26.0803 55.576 26.0703H39C38.5796 26.0603 38.1391 25.48 38 25.0799L33.409 10.2639C33.286 9.91373 32.7134 9.91373 32.5924 10.2539L28 25.0799C27.8609 25.48 26.4204 26.0603 26 26.0703H10.4224C10.2389 26.0803 10.0766 26.2003 10.0211 26.3704C9.96368 26.5405 10.0262 26.7306 10.1744 26.8506L22.9052 36.3244C23.2449 36.5745 23.3881 37.0147 23.2641 37.4149L18.6377 52.421C18.5843 52.6011 18.6468 52.7911 18.795 52.9012C18.9795 53.0312 19.1095 53.0312 19.296 52.9112L32.4291 43.9375C32.6015 43.8175 32.8011 43.7575 33.0007 43.7575C33.2003 43.7575 33.4009 43.8175 33.5723 43.9375L46.7044 52.9112C46.8546 53.0112 47.0592 53.0112 47.2105 52.9012C47.3546 52.7911 47.4181 52.6011 47.3637 52.431L42.7343 37.4149Z" fill="url(#paint0_linear)"/>
   </symbol> 
   <symbol viewBox="0 0 60 60" xmlns="http://www.w3.org/2000/svg" id="sml_paperclip">
      <path fill-rule="evenodd" clip-rule="evenodd" d="M54.5597 10.4706C52.9831 8.87689 50.8863 8 48.656 8C46.4257 8 44.3299 8.8779 42.7543 10.4706L20.2558 33.1963C17.9587 35.5209 17.9587 39.2993 20.2558 41.6219C21.371 42.7474 22.8509 43.3676 24.4264 43.3676C26.001 43.3676 27.4819 42.7474 28.5961 41.6219L45.0295 25.0203C45.4181 24.6267 45.4181 23.9894 45.0295 23.5968C44.6398 23.2031 44.009 23.2031 43.6203 23.5968L27.1859 40.1983C25.711 41.6893 23.1409 41.6883 21.6659 40.1983C20.1452 38.661 20.1452 36.1581 21.6659 34.6208L44.1635 11.8942C45.3623 10.682 46.9578 10.0135 48.656 10.0135C50.3541 10.0135 51.9506 10.681 53.1505 11.8942C55.627 14.397 55.627 18.4693 53.1505 20.9711L25.0214 49.388C21.5882 52.8543 16.0034 52.8543 12.5713 49.388C10.908 47.7087 9.99314 45.4747 9.99314 43.0978C9.99314 40.7218 10.907 38.4878 12.5693 36.8085L34.6353 14.5198C35.0239 14.1262 35.0239 13.4889 34.6353 13.0962C34.2456 12.7026 33.6148 12.7026 33.2261 13.0962L11.1601 35.385C9.12114 37.4448 7.999 40.1832 8 43.0978C8 46.0123 9.12214 48.7517 11.1621 50.8126C13.2669 52.9369 16.0323 54 18.7968 54C21.5613 54 24.3258 52.9369 26.4305 50.8126L54.5597 22.3947C57.8134 19.1076 57.8134 13.7587 54.5597 10.4706Z" fill="url(#paint0_linear)"/>
   </symbol> 
   <symbol viewBox="0 0 60 60" xmlns="http://www.w3.org/2000/svg" id="sml_contact">
      <path fill-rule="evenodd" clip-rule="evenodd" d="M48.999 20H42.999C42.7348 19.7503 42.2872 20.1958 41.999 21V55H9.99902V10H48.999V20ZM49.999 8H8.99902C8.44665 8 7.99902 8.44581 7.99902 9V56C7.99902 56.5542 8.44665 57 8.99902 57H42.999C43.839 57 44.2866 56.5542 43.999 56V22H49.999C50.5514 21.7212 50.999 21.2754 50.999 21V9C50.999 8.44581 50.5514 8 49.999 8ZM15.9663 48H36.0318C36.5657 48 36.999 47.56 36.999 47C36.999 46.45 36.5657 46 36.0318 46H15.9663C15.4323 46 14.999 46.45 14.999 47C14.999 47.56 15.4323 48 15.9663 48ZM36.0318 41H15.9663C15.4323 41 14.999 40.55 14.999 40C14.999 39.45 15.4323 39 15.9663 39H36.0318C36.5657 39 36.999 39.45 36.999 40C36.999 40.55 36.5657 41 36.0318 41ZM15.9663 34H36.0318C36.5657 34 36.999 33.56 36.999 33C36.999 32.45 36.5657 32 36.0318 32H15.9663C15.4323 32 14.999 32.45 14.999 33C14.999 33.56 15.4323 34 15.9663 34ZM23.156 22.36L21.385 17.51L19.646 22.36H23.156ZM17.898 26.84C17.743 27.05 17.49 27.15 17.137 27.15C16.838 27.15 16.573 27.04 16.343 26.82C16.114 26.6 15.999 26.36 15.999 26.08C15.999 25.92 16.025 25.75 16.079 25.58C16.133 25.41 16.221 25.17 16.343 24.87L19.349 17.24C19.3756 17.172 19.4037 17.0993 19.4334 17.0224L19.4335 17.0222L19.4336 17.0218C19.5 16.8499 19.5745 16.6571 19.658 16.45C19.778 16.14 19.906 15.88 20.042 15.68C20.179 15.48 20.358 15.31 20.58 15.19C20.801 15.06 21.075 15 21.401 15C21.732 15 22.009 15.06 22.231 15.19C22.452 15.31 22.631 15.48 22.768 15.67C22.904 15.87 23.019 16.08 23.112 16.31C23.206 16.54 23.325 16.84 23.469 17.22L26.539 24.8C26.779 25.38 26.899 25.8 26.899 26.06C26.899 26.33 26.786 26.58 26.559 26.81C26.332 27.04 26.058 27.15 25.737 27.15C25.55 27.15 25.39 27.12 25.256 27.05C25.123 26.98 25.01 26.89 24.92 26.78C24.829 26.66 24.731 26.49 24.627 26.25C24.523 26.01 24.433 25.8 24.359 25.62L23.797 24.15H19.021L18.459 25.65C18.24 26.24 18.054 26.64 17.898 26.84ZM49.999 25H46.999C46.4619 25 45.999 25.4472 45.999 26C45.999 26.5405 46.4619 26.9878 46.999 27H48.999V36H46.999C46.4619 36.0122 45.999 36.4495 45.999 37C45.999 37.5528 46.4619 38 46.999 38H49.999C50.5361 38 50.999 37.5528 50.999 37V26C50.999 25.4472 50.5361 25 49.999 25ZM46.999 41H49.999C50.5361 41 50.999 41.4549 50.999 42V54C50.999 54.5451 50.5361 55 49.999 55H46.999C46.4619 55 45.999 54.5451 45.999 54C45.999 53.4231 46.4619 52.9783 46.999 53H48.999V43H46.999C46.4619 43.0217 45.999 42.5668 45.999 42C45.999 41.4549 46.4619 41 46.999 41Z" fill="url(#paint0_linear)"/>
   </symbol> 
   
   <symbol viewBox="0 0 60 64" xmlns="http://www.w3.org/2000/svg" id="sml_distribution">
      <path fill-rule="evenodd" clip-rule="evenodd" d="M20.5 35H45.5V41H43.5V53H22.5V41H20.5V35ZM22.5 39H43.5V37H22.5V39ZM24.4091 41V51H41.5909V41H24.4091Z" fill="url(#paint0_linear)"/>
      <path d="M16.4544 18.5865L15.0865 20.0456L32.5456 36.4135L32.9927 35.9366L33.4117 36.4115L51.9114 20.0882L50.5882 18.5885L36.5186 31.0029L42.8758 20.6724L41.1725 19.6242L33.0547 32.8156L26.9889 19.673L25.173 20.5111L30.2569 31.5264L16.4544 18.5865Z" fill="url(#paint0_linear)"/>
      <path fill-rule="evenodd" clip-rule="evenodd" d="M14.5679 19.8571C19.623 22.1688 26.3786 23 33.5 23C40.6214 23 47.377 22.1688 52.4321 19.8571C52.537 19.3018 52.4979 18.4724 52.463 17.7336C52.4471 17.3961 52.4321 17.0774 52.4321 16.8125C52.4321 8.0795 43.9559 1 33.5 1C23.0441 1 14.5679 8.0795 14.5679 16.8125C14.5679 17.0774 14.5529 17.396 14.537 17.7335C14.5021 18.4723 14.463 19.3018 14.5679 19.8571ZM50.4683 17.8915C50.4782 18.1034 50.4839 18.2339 50.4888 18.3684C50.4906 18.4162 50.4921 18.4626 50.4934 18.5077C48.2278 19.3979 45.5564 20.0421 42.5203 20.4523L42.499 19.9571C42.4934 19.8246 42.4794 19.5854 42.4542 19.2543C42.4127 18.7075 42.3542 18.0993 42.2756 17.4448C42.051 15.5723 41.7108 13.6983 41.2293 11.9403C41.0653 11.3418 40.887 10.7656 40.6936 10.2143C40.2444 8.93448 39.6743 7.68217 39.0114 6.46986C38.4143 5.37808 37.7751 4.37744 37.1348 3.48764C37.0868 3.42098 37.0401 3.35665 36.9948 3.29471C44.7135 4.6177 50.4321 10.2319 50.4321 16.8125C50.4321 17.0891 50.439 17.2693 50.4683 17.8915ZM34.1944 3.01139L34.7397 3.64961C34.7728 3.68837 34.842 3.77234 34.942 3.8988C35.1129 4.11484 35.3044 4.36807 35.5114 4.65576C36.1058 5.4819 36.7013 6.41394 37.2566 7.42946C37.8698 8.55071 38.3952 9.70497 38.8064 10.8766C38.9838 11.3821 39.1483 11.9139 39.3003 12.4687C39.753 14.1213 40.0762 15.9014 40.2899 17.683C40.3648 18.3075 40.4206 18.8869 40.46 19.4058C40.4834 19.7142 40.4961 19.9317 40.5009 20.0429L40.5284 20.683C38.3475 20.8956 36.0003 21 33.5 21C31.3761 21 29.3626 20.9247 27.4678 20.7717L27.4991 20.0429C27.5039 19.9317 27.5166 19.7142 27.54 19.4058C27.5794 18.8869 27.6352 18.3075 27.7101 17.683C27.9238 15.9014 28.247 14.1213 28.6997 12.4687C28.8516 11.9139 29.0162 11.3821 29.1936 10.8766C29.6047 9.70497 30.1302 8.55071 30.7434 7.42946C31.2987 6.41394 31.8942 5.4819 32.4886 4.65576C32.6956 4.36807 32.8871 4.11484 33.058 3.8988C33.158 3.77234 33.2272 3.68837 33.2603 3.64961L33.8134 3.00232C33.9407 3.0042 34.0677 3.00723 34.1944 3.01139ZM16.5066 18.5077C19.0164 19.4939 22.0244 20.1782 25.4743 20.5769L25.5009 19.9571C25.5066 19.8246 25.5206 19.5854 25.5457 19.2543C25.5873 18.7075 25.6458 18.0993 25.7243 17.4448C25.949 15.5723 26.2892 13.6983 26.7707 11.9403C26.9347 11.3418 27.113 10.7656 27.3064 10.2143C27.7555 8.93448 28.3257 7.68217 28.9886 6.46986C29.5857 5.37808 30.2249 4.37744 30.8652 3.48764C30.9558 3.36167 31.042 3.24405 31.1231 3.13504C22.8451 4.08428 16.5679 9.91799 16.5679 16.8125C16.5679 17.0891 16.561 17.2693 16.5317 17.8915C16.5218 18.1034 16.5161 18.2339 16.5112 18.3684C16.5094 18.4162 16.5079 18.4626 16.5066 18.5077Z" fill="url(#paint0_linear)"/>
   </symbol> 
   <symbol viewBox="0 0 60 64" xmlns="http://www.w3.org/2000/svg" id="sml_timecheck">
      <path fill-rule="evenodd" clip-rule="evenodd" d="M40.5 21H36.5V23.0259C26.4714 23.5459 18.5 31.842 18.5 42C18.5 52.4934 27.0066 61 37.5 61C47.9934 61 56.5 52.4934 56.5 42C56.5 39.8068 56.1284 37.7003 55.4447 35.7402L53.5563 36.3989C54.1784 38.1826 54.5 40.068 54.5 42C54.5 51.3888 46.8888 59 37.5 59C28.1112 59 20.5 51.3888 20.5 42C20.5 32.6112 28.1112 25 37.5 25C39.7896 25 42.0126 25.4517 44.0752 26.3177L44.8494 24.4736C43.4743 23.8963 42.0171 23.4761 40.5 23.2355V21ZM20.5 25H6.5V27H20.5V25ZM10.5 29H18.5V31H10.5V29ZM16.5 33H12.5V35H16.5V33ZM52.4386 25.5871L53.9129 26.9386L37.8333 44.4799L29.0871 34.9386L30.5614 33.5871L37.8333 41.5201L52.4386 25.5871Z" fill="url(#paint0_linear)"/>
   </symbol> 
   
   <symbol viewBox="0 0 200 160" xmlns="http://www.w3.org/2000/svg" id="lrg_24hrs">
      <path fill-rule="evenodd" clip-rule="evenodd" d="M174.707 65.8706C175.877 64.6266 177.823 64.5955 179.045 65.7773C180.276 66.9591 180.322 68.9185 179.153 70.1625L158.661 91.964C158.06 92.6171 157.249 92.9281 156.439 92.9281C155.678 92.9281 154.916 92.6482 154.324 92.0573L132.81 71.3132C131.582 70.1314 131.533 68.1721 132.706 66.928C133.876 65.684 135.819 65.6218 137.044 66.8036L154.051 83.2247C155.727 53.617 134.413 27.3059 104.964 23.6672C90.109 21.8322 75.4353 25.9686 63.6471 35.2988C51.862 44.6289 44.3716 58.0644 42.5604 73.1171C40.7492 88.1697 44.8321 103.036 54.0569 114.978C63.2818 126.921 76.5404 134.51 91.3984 136.344C114.299 139.175 136.295 127.761 147.368 107.203C148.181 105.71 150.048 105.151 151.536 105.99C153.022 106.799 153.572 108.696 152.758 110.189C141.71 130.684 120.899 143 98.3301 143C95.7882 143 93.228 142.844 90.6555 142.533C74.1674 140.481 59.4537 132.084 49.2189 118.835C38.9841 105.586 34.4561 89.0716 36.4668 72.3706C38.4745 55.6696 46.7845 40.7725 59.862 30.3849C72.9395 20.0284 89.2034 15.4255 105.707 17.4782C137.587 21.4279 160.945 49.294 160.344 81.1721L174.707 65.8706ZM71.448 93.536V98H94.584V92.96H80.04C81.544 91.744 83.096 90.424 84.696 89C86.296 87.576 87.784 86.048 89.16 84.416C90.536 82.784 91.648 81.088 92.496 79.328C93.344 77.568 93.768 75.76 93.768 73.904C93.768 70.928 92.816 68.504 90.912 66.632C89.008 64.76 86.344 63.824 82.92 63.824C80.808 63.824 78.904 64.232 77.208 65.048C75.512 65.864 74.152 67.096 73.128 68.744C72.104 70.392 71.56 72.448 71.496 74.912H77.448C77.448 73.28 77.896 71.888 78.792 70.736C79.688 69.584 81.016 69.008 82.776 69.008C84.504 69.008 85.744 69.536 86.496 70.592C87.248 71.648 87.624 72.864 87.624 74.24C87.624 75.712 87.168 77.224 86.256 78.776C85.344 80.328 84.128 81.92 82.608 83.552C81.088 85.184 79.36 86.832 77.424 88.496C75.488 90.16 73.496 91.84 71.448 93.536ZM115.032 91.76V98H121.176V91.76H125.592V86.432H121.176V64.4H114.216L98.472 86.864V91.76H115.032ZM115.416 86.432H105.048L115.416 71.168V86.432Z" fill="url(#paint0_linear)"/>
   </symbol> 
   <symbol viewBox="0 0 200 160" xmlns="http://www.w3.org/2000/svg" id="lrg_transport">
      <path fill-rule="evenodd" clip-rule="evenodd" d="M143 32H35V110H53.3001C53.1033 110.969 53 111.973 53 113C53 121.284 59.7157 128 68 128C76.2843 128 83 121.284 83 113C83 111.973 82.8967 110.969 82.6999 110H137H143H143.3C143.103 110.969 143 111.973 143 113C143 121.284 149.716 128 158 128C166.284 128 173 121.284 173 113C173 111.973 172.897 110.969 172.7 110H185V74L173 50H143V32ZM158 98C162.907 98 167.264 100.357 170.001 104H179V80H143V104H145.999C148.736 100.357 153.093 98 158 98ZM169.292 56L178.292 74H161V56H169.292ZM155 56H143V74H155V56ZM80.0011 104H137V50V38H41V104H55.9989C58.7355 100.357 63.0925 98 68 98C72.9075 98 77.2645 100.357 80.0011 104ZM29 44H-1V50H29V44ZM11 56H29V62H11V56ZM29 68H17V74H29V68Z" fill="url(#paint0_linear)"/>
   </symbol> 
   <symbol viewBox="0 0 200 160" xmlns="http://www.w3.org/2000/svg" id="lrg_package">
      <path fill-rule="evenodd" clip-rule="evenodd" d="M50.5 23H149.5L162.7 47H166V53V71H160V137H40V71H34V53V47H37.3L50.5 23ZM44.1476 47H155.852L145.952 29H54.0476L44.1476 47ZM40 53V65H70H130H160V53H40ZM46 131V71H70V89H130V71H154V131H46ZM76 83V71H124V83H76Z" fill="url(#paint0_linear)"/>
   </symbol>
   
   <symbol viewBox="0 0 20 20" xmlns="http://www.w3.org/2000/svg" id="u_expand">
     <path fill-rule="evenodd" clip-rule="evenodd" d="M11 18.9914C11 19.5491 10.552 20 10 20C9.447 20 9 19.5491 9 18.9914V11H1.00862C0.451863 11 0 10.553 0 10C0 9.448 0.451863 9 1.00862 9H9V1.00862C9 0.451863 9.447 0 10 0C10.552 0 11 0.451863 11 1.00862V9H18.9914C19.5491 9 20 9.448 20 10C20 10.553 19.5491 11 18.9914 11H11V18.9914Z"/>
    </symbol> 
   
   <symbol viewBox="0 0 13 21" xmlns="http://www.w3.org/2000/svg" id="u_arrow_right">
      <path fill-rule="evenodd" clip-rule="evenodd" d="M0.147135 19.4445L2.26106 21.5L13 11.058L2.14183 0.5L0 2.58262L8.74424 11.0851L0.147135 19.4445Z"/>
   </symbol> 
   <symbol viewBox="0 0 13 21" xmlns="http://www.w3.org/2000/svg" id="u_arrow_left">
      <path fill-rule="evenodd" clip-rule="evenodd" d="M13.3529 18.9445L11.2389 21L0.5 10.558L11.3582 0L13.5 2.08262L4.75576 10.5851L13.3529 18.9445Z"/>
   </symbol> 
   <symbol viewBox="0 0 20 14" xmlns="http://www.w3.org/2000/svg" id="u_menu">
       <path fill-rule="evenodd" clip-rule="evenodd" d="M0 0H20V2H0V0ZM0 6H20V8H0V6ZM20 12H0V14H20V12Z"/>
   </symbol> 
   <symbol viewBox="0 0 100 28" xmlns="http://www.w3.org/2000/svg" id="u_logo">
    <path fill-rule="evenodd" clip-rule="evenodd" d="M29.63 27.2293C31.15 27.8194 32.7233 28.1144 34.35 28.1144C35.9767 28.1144 37.5367 27.8194 39.03 27.2293C40.55 26.6125 41.8967 25.7274 43.07 24.5741C44.27 23.3941 45.2167 21.9324 45.91 20.1891C46.6033 18.419 46.95 16.3941 46.95 14.1144C46.95 11.781 46.6033 9.74273 45.91 7.99943C45.2167 6.22932 44.27 4.76763 43.07 3.61437C41.8967 2.4343 40.55 1.56265 39.03 0.999432C37.5367 0.409393 35.9767 0.114374 34.35 0.114374C32.75 0.114374 31.19 0.422803 29.67 1.03966C28.1767 1.6297 26.83 2.51476 25.63 3.69483C24.43 4.84809 23.4833 6.29637 22.79 8.03966C22.0967 9.78296 21.75 11.8079 21.75 14.1144C21.75 16.4477 22.0967 18.486 22.79 20.2293C23.4833 21.9726 24.4167 23.4343 25.59 24.6144C26.79 25.7676 28.1367 26.6393 29.63 27.2293ZM37.91 26.1029C37.0033 26.8807 35.8167 27.2695 34.35 27.2695C32.91 27.2695 31.7367 26.8807 30.83 26.1029C29.9233 25.2983 29.2567 23.9439 28.83 22.0397C28.43 20.1086 28.23 17.4669 28.23 14.1144C28.23 10.7351 28.43 8.0933 28.83 6.18909C29.2567 4.25805 29.9233 2.90365 30.83 2.12587C31.7367 1.32127 32.91 0.918971 34.35 0.918971C35.8167 0.918971 37.0033 1.32127 37.91 2.12587C38.8167 2.90365 39.47 4.25805 39.87 6.18909C40.2967 8.0933 40.51 10.7351 40.51 14.1144C40.51 17.4669 40.2967 20.1086 39.87 22.0397C39.47 23.9439 38.8167 25.2983 37.91 26.1029ZM0.630001 26.9879V27.3902H20.07L20.43 20.3902H20.03L18.47 23.7695C18.0433 24.6814 17.59 25.3787 17.11 25.8615C16.6567 26.3443 15.9367 26.5856 14.95 26.5856H8.79V3.6546C8.79 3.11821 8.88334 2.68909 9.07 2.36725C9.25667 2.01859 9.60334 1.75039 10.11 1.56265L10.83 1.24081V0.838512H0.630001V1.24081L1.47 1.56265C2.00333 1.75039 2.35 2.00518 2.51 2.32702C2.67 2.64886 2.75 3.07798 2.75 3.61437V24.6144C2.75 25.1508 2.67 25.5799 2.51 25.9017C2.37667 26.1967 2.03 26.4515 1.47 26.6661L0.630001 26.9879ZM88.03 28.1144C86.4033 28.1144 84.83 27.8194 83.31 27.2293C81.8167 26.6393 80.47 25.7676 79.27 24.6144C78.0967 23.4343 77.1633 21.9726 76.47 20.2293C75.7767 18.486 75.43 16.4477 75.43 14.1144C75.43 11.8079 75.7767 9.78296 76.47 8.03966C77.1633 6.29637 78.11 4.84809 79.31 3.69483C80.51 2.51476 81.8567 1.6297 83.35 1.03966C84.87 0.422803 86.43 0.114374 88.03 0.114374C89.6567 0.114374 91.2167 0.409393 92.71 0.999432C94.23 1.56265 95.5767 2.4343 96.75 3.61437C97.95 4.76763 98.8967 6.22932 99.59 7.99943C100.283 9.74273 100.63 11.781 100.63 14.1144C100.63 16.3941 100.283 18.419 99.59 20.1891C98.8967 21.9324 97.95 23.3941 96.75 24.5741C95.5767 25.7274 94.23 26.6125 92.71 27.2293C91.2167 27.8194 89.6567 28.1144 88.03 28.1144ZM88.03 27.2695C89.4967 27.2695 90.6833 26.8807 91.59 26.1029C92.4967 25.2983 93.15 23.9439 93.55 22.0397C93.9767 20.1086 94.19 17.4669 94.19 14.1144C94.19 10.7351 93.9767 8.0933 93.55 6.18909C93.15 4.25805 92.4967 2.90365 91.59 2.12587C90.6833 1.32127 89.4967 0.918971 88.03 0.918971C86.59 0.918971 85.4167 1.32127 84.51 2.12587C83.6033 2.90365 82.9367 4.25805 82.51 6.18909C82.11 8.0933 81.91 10.7351 81.91 14.1144C81.91 17.4669 82.11 20.1086 82.51 22.0397C82.9367 23.9439 83.6033 25.2983 84.51 26.1029C85.4167 26.8807 86.59 27.2695 88.03 27.2695ZM55.49 26.4247C57.57 27.5512 59.97 28.1144 62.69 28.1144C64.45 28.1144 66.0367 27.9132 67.45 27.5109C68.89 27.1086 70.3033 26.5186 71.69 25.7408V17.0109C71.69 15.9918 72.1967 15.3213 73.21 14.9994L73.77 14.8385V14.4362H62.49V14.8385L64.33 15.3213C65.3967 15.5627 65.93 16.2063 65.93 17.2523V25.2178C65.93 25.7006 65.85 26.1163 65.69 26.465C65.53 26.8136 65.1967 27.0282 64.69 27.1086C64.4767 27.1623 64.25 27.2159 64.01 27.2695C63.7967 27.2964 63.57 27.3098 63.33 27.3098C61.7567 27.3098 60.37 26.8672 59.17 25.9822C57.97 25.0703 57.0367 23.6354 56.37 21.6776C55.73 19.7197 55.41 17.1853 55.41 14.0741C55.41 10.9362 55.7567 8.40173 56.45 6.4707C57.1433 4.53966 58.1167 3.13162 59.37 2.24656C60.65 1.3615 62.1167 0.918971 63.77 0.918971C64.3567 0.918971 64.8233 0.959201 65.17 1.03966C65.5433 1.0933 65.9433 1.18717 66.37 1.32127C66.8233 1.48219 67.1967 1.71016 67.49 2.00518C67.7833 2.3002 68.1033 2.78296 68.45 3.45345L70.69 7.63736H71.09L70.93 2.00518C69.8367 1.38832 68.6767 0.918971 67.45 0.597133C66.25 0.275294 64.9433 0.114374 63.53 0.114374C60.4367 0.114374 57.7967 0.704412 55.61 1.88449C53.45 3.03775 51.7967 4.66035 50.65 6.75231C49.5033 8.84426 48.93 11.2849 48.93 14.0741C48.93 16.9439 49.5033 19.4381 50.65 21.5569C51.8233 23.6489 53.4367 25.2715 55.49 26.4247Z"/>
   </symbol>  
</svg>