<svg width="0" height="0">
   <symbol viewBox="0 0 24 44" xmlns="http://www.w3.org/2000/svg" id="instagram">
      <path fill-rule="evenodd" clip-rule="evenodd" d="M12 13C9.55575 13 9.24975 13.0105 8.28975 13.054C5.02125 13.204 3.20475 15.0175 3.05475 18.289C3.0105 19.2498 3 19.5557 3 22C3 24.4443 3.0105 24.751 3.054 25.711C3.204 28.9795 5.0175 30.796 8.289 30.946C9.24975 30.9895 9.55575 31 12 31C14.4443 31 14.751 30.9895 15.711 30.946C18.9765 30.796 20.7975 28.9825 20.9452 25.711C20.9895 24.751 21 24.4443 21 22C21 19.5557 20.9895 19.2498 20.946 18.2898C20.799 15.0243 18.9832 13.2048 15.7118 13.0547C14.751 13.0105 14.4443 13 12 13ZM12 14.6222C14.403 14.6222 14.688 14.6312 15.6375 14.6747C18.0765 14.7857 19.2157 15.943 19.3267 18.364C19.3703 19.3127 19.3785 19.5977 19.3785 22.0007C19.3785 24.4045 19.3695 24.6888 19.3267 25.6375C19.215 28.0563 18.0787 29.2157 15.6375 29.3267C14.688 29.3703 14.4045 29.3792 12 29.3792C9.597 29.3792 9.312 29.3703 8.36325 29.3267C5.91825 29.215 4.785 28.0525 4.674 25.6367C4.6305 24.688 4.6215 24.4037 4.6215 22C4.6215 19.597 4.63125 19.3127 4.674 18.3632C4.78575 15.943 5.922 14.785 8.36325 14.674C9.31275 14.6312 9.597 14.6222 12 14.6222ZM7.3785 22C7.3785 19.4478 9.44775 17.3785 12 17.3785C14.5522 17.3785 16.6215 19.4478 16.6215 22C16.6215 24.553 14.5522 26.6222 12 26.6222C9.44775 26.6222 7.3785 24.5522 7.3785 22ZM12 25C10.3433 25 9 23.6575 9 22C9 20.3433 10.3433 19 12 19C13.6567 19 15 20.3433 15 22C15 23.6575 13.6567 25 12 25ZM15.7238 17.1962C15.7238 16.6 16.2075 16.1163 16.8045 16.1163C17.4008 16.1163 17.8837 16.6 17.8837 17.1962C17.8837 17.7925 17.4008 18.2762 16.8045 18.2762C16.2075 18.2762 15.7238 17.7925 15.7238 17.1962Z"/>
  </symbol> 
  <symbol viewBox="0 0 24 44" xmlns="http://www.w3.org/2000/svg" id="twitter">
      <path fill-rule="evenodd" clip-rule="evenodd" d="M21 16.7758C20.3378 17.0773 19.626 17.2803 18.879 17.3718C19.6417 16.9035 20.2275 16.1613 20.5028 15.2769C19.7895 15.7106 18.999 16.0259 18.1575 16.1959C17.4848 15.4599 16.524 15 15.462 15C13.0777 15 11.3258 17.2811 11.8643 19.649C8.796 19.4914 6.075 17.984 4.25325 15.6929C3.28575 17.3949 3.7515 19.6214 5.3955 20.7488C4.791 20.7288 4.221 20.5589 3.72375 20.2751C3.68325 22.0293 4.9095 23.6705 6.6855 24.0358C6.16575 24.1804 5.5965 24.2143 5.0175 24.1004C5.487 25.6047 6.8505 26.6991 8.4675 26.7299C6.915 27.9781 4.959 28.5357 3 28.2988C4.63425 29.3732 6.576 30 8.661 30C15.5175 30 19.3912 24.062 19.1572 18.7362C19.8787 18.2017 20.505 17.5349 21 16.7758Z"/>
   </symbol> 
   <symbol viewBox="0 0 24 44" xmlns="http://www.w3.org/2000/svg" id="facebook">
      <path fill-rule="evenodd" clip-rule="evenodd" d="M9.75 19H7.5V22H9.75V31H13.5V22H16.2315L16.5 19H13.5V17.7498C13.5 17.0335 13.644 16.75 14.3362 16.75H16.5V13H13.644C10.947 13 9.75 14.1873 9.75 16.4613V19Z"/>
   </symbol> 



   <!-- <symbol viewBox="0 0 52 52" xmlns="http://www.w3.org/2000/svg" id="sml_settings">
      <path fill-rule="evenodd" clip-rule="evenodd" d="M25.9995 32C21.8645 32 18.5 28.6353 18.5 24.5C18.5 20.3638 21.8645 17 25.9995 17C30.1345 17 33.5 20.3638 33.5 24.5C33.5 28.6353 30.1345 32 25.9995 32ZM25.9995 15C20.7615 15 16.5 19.2617 16.5 24.5C16.5 29.7383 20.7615 34 25.9995 34C31.2375 34 35.5 29.7383 35.5 24.5C35.5 19.2617 31.2375 15 25.9995 15Z" fill="url(#paint0_linear)"/>
      <path fill-rule="evenodd" clip-rule="evenodd" d="M48.374 26.85L42.781 27.5815C42.3668 27.6359 42.0292 27.9392 41.9315 28.3453C41.5334 30.0027 40.8784 31.5816 39.9855 33.0406C39.7679 33.3962 39.792 33.8497 40.046 34.1801L43.4865 38.6558C42.4978 39.8759 41.3843 40.9903 40.1639 41.9798L35.6895 38.5409C35.359 38.287 34.9045 38.2628 34.5487 38.4815C33.0895 39.3752 31.5084 40.0311 29.8496 40.4311C29.4445 40.5289 29.1412 40.8664 29.0867 41.2805L28.3541 46.8735C26.7659 47.0418 25.2432 47.0418 23.655 46.8756L22.9233 41.2845C22.8689 40.8704 22.5656 40.5329 22.1595 40.4362C20.4987 40.0372 18.9155 39.3812 17.4533 38.4865C17.0976 38.2699 16.6441 38.293 16.3135 38.547L11.8371 41.9868C11.2959 41.5465 10.7699 41.077 10.269 40.5893L9.9123 40.2316C9.42153 39.7299 8.95293 39.2059 8.51456 38.6659L11.954 34.1922C12.208 33.8617 12.2321 33.4083 12.0135 33.0517C11.1166 31.5897 10.4595 30.0058 10.0594 28.3433C9.96168 27.9372 9.62409 27.6339 9.21091 27.5795L3.61791 26.848C3.54938 26.182 3.51008 25.509 3.5 24.844V24.1719C3.51008 23.4958 3.54938 22.8197 3.61891 22.1517L9.21091 21.4202C9.62409 21.3658 9.96168 21.0625 10.0594 20.6565C10.4595 18.995 11.1166 17.4111 12.0135 15.9481C12.2321 15.5924 12.208 15.139 11.954 14.8075L8.51456 10.3339C8.95293 9.79484 9.41951 9.27292 9.90525 8.77619L10.262 8.4195C10.7679 7.92479 11.2959 7.45425 11.8371 7.01394L16.3135 10.4528C16.6441 10.7067 17.0965 10.7309 17.4533 10.5132C18.9155 9.61852 20.4987 8.96259 22.1595 8.56459C22.5656 8.46787 22.8689 8.12932 22.9233 7.71622L23.655 2.12519C25.2432 1.95793 26.7659 1.95793 28.3541 2.12721L29.0867 7.72025C29.1412 8.13335 29.4445 8.47089 29.8496 8.56862C31.5084 8.96863 33.0895 9.62456 34.5487 10.5193C34.9035 10.7369 35.3569 10.7137 35.6895 10.4588L40.1639 7.02099C41.3843 8.01043 42.4978 9.12481 43.4865 10.344L40.046 14.8196C39.792 15.1501 39.7679 15.6045 39.9855 15.9602C40.8784 17.4181 41.5334 18.998 41.9315 20.6545C42.0292 21.0605 42.3668 21.3638 42.781 21.4182L48.374 22.1497C48.4577 22.9447 48.5 23.7326 48.5 24.5004C48.5 25.2681 48.4577 26.0561 48.374 26.85ZM50.2633 21.115C50.2009 20.6659 49.8464 20.3135 49.3962 20.2541L43.704 19.5099C43.3122 18.1183 42.7573 16.779 42.0473 15.5143L45.549 10.9597C45.825 10.6012 45.827 10.1008 45.5541 9.73928C44.1864 7.93177 42.576 6.32062 40.7683 4.95316C40.4067 4.67926 39.9072 4.68027 39.5477 4.95719L34.9935 8.4564C33.7286 7.74548 32.3881 7.18863 30.9943 6.79591L30.249 1.10352C30.1896 0.654408 29.8381 0.299955 29.3889 0.237523C27.1048 -0.0776587 24.9043 -0.0796726 22.6221 0.234502C22.173 0.296934 21.8195 0.651387 21.7611 1.1015L21.0158 6.79088C19.6199 7.18259 18.2765 7.73844 17.0085 8.45036L12.4544 4.95014C12.0938 4.67423 11.5953 4.67221 11.2327 4.9451C10.4119 5.5664 9.6143 6.25316 8.85493 6.9963L8.48432 7.36787C7.75215 8.11504 7.06731 8.90853 6.44794 9.7272C6.174 10.0897 6.17602 10.5892 6.45197 10.9487L9.95168 15.5012C9.23864 16.7699 8.6807 18.1142 8.28692 19.5119L2.59574 20.2571C2.14556 20.3155 1.79106 20.6689 1.72861 21.118C1.59165 22.1089 1.51511 23.1269 1.5 24.1561V24.8569C1.51511 25.8719 1.59165 26.889 1.72861 27.8808C1.79106 28.3299 2.14556 28.6824 2.59574 28.7418L8.28692 29.4859C8.6807 30.8846 9.23864 32.2289 9.95168 33.4967L6.45197 38.0492C6.17602 38.4087 6.174 38.9092 6.44794 39.2707C7.06731 40.0893 7.75215 40.8838 8.49137 41.637L8.86299 42.0096C9.6143 42.7447 10.4119 43.4325 11.2327 44.0528C11.5943 44.3256 12.0938 44.3236 12.4544 44.0477L17.0085 40.5475C18.2765 41.2594 19.6199 41.8163 21.0158 42.208L21.7611 47.8974C21.8195 48.3465 22.173 48.7019 22.6221 48.7634C23.7602 48.9204 24.8952 49 25.996 49C27.1028 49 28.2438 48.9194 29.3889 48.7613C29.8381 48.6989 30.1896 48.3435 30.249 47.8943L30.9943 42.202C32.3881 41.8102 33.7286 41.2534 34.9935 40.5425L39.5477 44.0417C39.9072 44.3176 40.4067 44.3196 40.7683 44.0457C42.576 42.6782 44.1864 41.0671 45.5541 39.2596C45.827 38.8981 45.825 38.3976 45.549 38.0381L42.0473 33.4836C42.7573 32.2199 43.3122 30.8806 43.704 29.488L49.3962 28.7438C49.8464 28.6854 50.2009 28.332 50.2633 27.8829C50.4204 26.7409 50.5 25.6021 50.5 24.4994C50.5 23.3968 50.4204 22.2579 50.2633 21.115Z" fill="url(#paint0_linear)"/>
   </symbol> 
   <symbol viewBox="0 0 52 52" xmlns="http://www.w3.org/2000/svg" id="sml_chat">
      <path fill-rule="evenodd" clip-rule="evenodd" d="M19.0041 0C10.1546 0 3 7.91918 3 17.6072C3 25.6213 7.43067 32.7536 14 34.9544V44C14 44.8329 14.4794 45.254 15.2909 45.6322C15.3475 45.6586 15.4751 45.7152 15.567 45.756L15.5672 45.7561C15.6172 45.7783 15.6567 45.7958 15.6684 45.8012C15.9601 45.9331 16.2641 46 16.5728 46C17.1036 46 17.6201 45.8031 18.0202 45.4436L29.4166 35.2132H32.9971C41.8457 35.2132 49 27.2948 49 17.6072C49 7.91939 41.8456 0 32.9971 0H19.0041ZM16.3474 43.9141C16.2631 43.8767 16.1701 43.8354 16.1357 43.8194C16.0824 43.7946 16.0372 43.772 16 43.7521V33.449L15.2627 33.2483C9.22818 31.6055 5 25.0719 5 17.6072C5 8.98101 11.307 2 19.0041 2H32.9971C40.6931 2 47 8.9812 47 17.6072C47 26.2329 40.6934 33.2132 32.9971 33.2132H28.6506L16.6838 43.9556C16.6513 43.9847 16.6113 44 16.5728 44C16.5513 44 16.5277 43.9948 16.4992 43.9819C16.4771 43.9717 16.415 43.9442 16.3474 43.9141ZM36 18C36 17.448 35.5491 17 34.9914 17H27V9.00862C27 8.45186 26.552 8 26 8C25.447 8 25 8.45186 25 9.00862V17H17.0086C16.4519 17 16 17.448 16 18C16 18.553 16.4519 19 17.0086 19H25V26.9914C25 27.5491 25.447 28 26 28C26.552 28 27 27.5491 27 26.9914V19H34.9914C35.5491 19 36 18.553 36 18Z" fill="url(#paint0_linear)"/>
   </symbol> 
   <symbol viewBox="0 0 52 52" xmlns="http://www.w3.org/2000/svg" id="sml_email">
      <path fill-rule="evenodd" clip-rule="evenodd" d="M43 9.79885V2H9V9.79885L26 23.7079L43 9.79885ZM45 8.16248L46.3758 7.0368C46.251 7.01265 46.1221 7 45.9901 7H45V8.16248ZM45 5H45.9901C46.7726 5 47.5025 5.22358 48.1194 5.61023L48.1407 5.5928L48.1944 5.65837C49.2824 6.37446 50 7.60562 50 9.00426V32.9957C50 35.211 48.2047 37 45.9901 37H6.00989C3.79405 37 2 35.2072 2 32.9957V9.00426C2 7.60303 2.71831 6.37233 3.8067 5.65707L3.85928 5.5928L3.88019 5.60991C4.49728 5.22334 5.22741 5 6.00989 5H7V0H45V5ZM7 8.16248V7H6.00989C5.87788 7 5.74889 7.01262 5.62406 7.03672L7 8.16248ZM38 6V8H14V6H38ZM14 10V12H33V10H14ZM4.1008 8.37454C4.03538 8.5725 4 8.78419 4 9.00426V32.9957C4 33.1761 4.02386 33.3509 4.06861 33.5172L17.9115 19.6742L4.1008 8.37454ZM6.00989 35C5.82771 35 5.65125 34.9759 5.48353 34.9307L19.4526 20.9616L19.307 20.8159L26 26.2921L32.9043 20.6431L32.5858 20.9616L46.5467 34.9225C46.37 34.973 46.1833 35 45.9901 35H6.00989ZM47.9395 33.4869C47.979 33.3298 48 33.1652 48 32.9957V9.00426C48 8.78435 47.9645 8.5727 47.899 8.37472L34.1096 19.657L47.9395 33.4869Z" fill="url(#paint0_linear)"/>
   </symbol> 
   <symbol viewBox="0 0 52 52" xmlns="http://www.w3.org/2000/svg" id="sml_favourite">
      <path fill-rule="evenodd" clip-rule="evenodd" d="M33 16.0934H48.6022C49.647 16.1134 50.5627 16.7936 50.8811 17.7838C51.2025 18.764 50.8579 19.8442 50.0217 20.4644L37.8616 29.5263L42.2803 43.8593C42.5856 44.8495 42.229 45.9198 41.3897 46.5299C40.9616 46.84 40.4608 47 39.941 47C39.4443 47 38.9648 46.85 38.5527 46.5699L26.0006 37.9881L13.4496 46.5699C12.6134 47.15 11.4407 47.13 10.6146 46.5299C9.77435 45.9198 9.41569 44.8495 9.72095 43.8593L14.1367 29.5263L1.97855 20.4644C1.14336 19.8442 0.797801 18.764 1.11818 17.7838C1.43654 16.7936 2.35233 16.1134 3.39606 16.0934H19L23.6915 1.62034C24.0341 0.650138 24.9619 0 26.0006 0C27.0373 0 27.9652 0.650138 28.3088 1.62034L33 16.0934ZM35.7343 29.4149C35.6103 29.0147 35.7535 28.5745 36.0932 28.3244L48.827 18.8406C48.9742 18.7306 49.0357 18.5405 48.9793 18.3704C48.9218 18.1903 48.7605 18.0803 48.576 18.0703H32C31.5796 18.0603 31.1391 17.48 31 17.0799L26.409 2.26387C26.286 1.91373 25.7134 1.91373 25.5924 2.25387L21 17.0799C20.8609 17.48 19.4204 18.0603 19 18.0703H3.42238C3.2389 18.0803 3.07659 18.2003 3.02114 18.3704C2.96368 18.5405 3.02618 18.7306 3.17438 18.8506L15.9052 28.3244C16.2449 28.5745 16.3881 29.0147 16.2641 29.4149L11.6377 44.421C11.5843 44.6011 11.6468 44.7911 11.795 44.9012C11.9795 45.0312 12.1095 45.0312 12.296 44.9112L25.4291 35.9375C25.6015 35.8175 25.8011 35.7575 26.0007 35.7575C26.2003 35.7575 26.4009 35.8175 26.5723 35.9375L39.7044 44.9112C39.8546 45.0112 40.0592 45.0112 40.2105 44.9012C40.3546 44.7911 40.4181 44.6011 40.3637 44.431L35.7343 29.4149Z" fill="url(#paint0_linear)"/>
   </symbol> 
   <symbol viewBox="0 0 52 52" xmlns="http://www.w3.org/2000/svg" id="sml_attach">
      <path fill-rule="evenodd" clip-rule="evenodd" d="M48.0597 2.4706C46.4831 0.876891 44.3863 0 42.156 0C39.9257 0 37.8299 0.877897 36.2543 2.4706L13.7558 25.1963C11.4587 27.5209 11.4587 31.2993 13.7558 33.6219C14.871 34.7474 16.3509 35.3676 17.9264 35.3676C19.501 35.3676 20.9819 34.7474 22.0961 33.6219L38.5295 17.0203C38.9181 16.6267 38.9181 15.9894 38.5295 15.5968C38.1398 15.2031 37.509 15.2031 37.1203 15.5968L20.6859 32.1983C19.211 33.6893 16.6409 33.6883 15.1659 32.1983C13.6452 30.661 13.6452 28.1581 15.1659 26.6208L37.6635 3.89416C38.8623 2.68202 40.4578 2.01353 42.156 2.01353C43.8541 2.01353 45.4506 2.68101 46.6505 3.89416C49.127 6.39697 49.127 10.4693 46.6505 12.9711L18.5214 41.388C15.0882 44.8543 9.50344 44.8543 6.07126 41.388C4.40799 39.7087 3.49314 37.4747 3.49314 35.0978C3.49314 32.7218 4.40699 30.4878 6.06926 28.8085L28.1353 6.5198C28.5239 6.12615 28.5239 5.48887 28.1353 5.09623C27.7456 4.70259 27.1148 4.70259 26.7261 5.09623L4.66012 27.385C2.62114 29.4448 1.499 32.1832 1.5 35.0978C1.5 38.0123 2.62214 40.7517 4.66211 42.8126C6.76686 44.9369 9.53234 46 12.2968 46C15.0613 46 17.8258 44.9369 19.9305 42.8126L48.0597 14.3947C51.3134 11.1076 51.3134 5.75868 48.0597 2.4706Z" fill="url(#paint0_linear)"/>
   </symbol> 
   <symbol viewBox="0 0 52 52" xmlns="http://www.w3.org/2000/svg" id="sml_contact">
      <path fill-rule="evenodd" clip-rule="evenodd" d="M45.5 12H39.5C39.2358 11.7503 38.7882 12.1958 38.5 13V47H6.5V2H45.5V12ZM46.5 0H5.5C4.94763 0 4.5 0.445815 4.5 1V48C4.5 48.5542 4.94763 49 5.5 49H39.5C40.34 49 40.7876 48.5542 40.5 48V14H46.5C47.0524 13.7212 47.5 13.2754 47.5 13V1C47.5 0.445815 47.0524 0 46.5 0Z" fill="url(#paint0_linear)"/>
      <path fill-rule="evenodd" clip-rule="evenodd" d="M14.399 18.84C14.244 19.05 13.991 19.15 13.638 19.15C13.339 19.15 13.074 19.04 12.844 18.82C12.615 18.6 12.5 18.36 12.5 18.08C12.5 17.92 12.526 17.75 12.58 17.58C12.634 17.41 12.722 17.17 12.844 16.87L15.85 9.24C15.8766 9.17205 15.9047 9.09932 15.9344 9.02242C16.0008 8.85034 16.0754 8.65733 16.159 8.45C16.279 8.14 16.407 7.88 16.543 7.68C16.68 7.48 16.859 7.31 17.081 7.19C17.302 7.06 17.576 7 17.902 7C18.233 7 18.51 7.06 18.732 7.19C18.953 7.31 19.132 7.48 19.269 7.67C19.405 7.87 19.52 8.08 19.613 8.31C19.707 8.54 19.826 8.84 19.97 9.22L23.04 16.8C23.28 17.38 23.4 17.8 23.4 18.06C23.4 18.33 23.287 18.58 23.06 18.81C22.833 19.04 22.559 19.15 22.238 19.15C22.051 19.15 21.891 19.12 21.757 19.05C21.624 18.98 21.511 18.89 21.421 18.78C21.33 18.66 21.232 18.49 21.128 18.25C21.024 18.01 20.934 17.8 20.86 17.62L20.298 16.15H15.522L14.96 17.65C14.741 18.24 14.555 18.64 14.399 18.84ZM19.657 14.36L17.886 9.51L16.147 14.36H19.657Z" fill="url(#paint0_linear)"/>
      <path d="M12.4672 26H32.5328C33.0667 26 33.5 25.56 33.5 25C33.5 24.45 33.0667 24 32.5328 24H12.4672C11.9333 24 11.5 24.45 11.5 25C11.5 25.56 11.9333 26 12.4672 26Z" fill="url(#paint0_linear)"/>
      <path d="M32.5328 33H12.4672C11.9333 33 11.5 32.55 11.5 32C11.5 31.45 11.9333 31 12.4672 31H32.5328C33.0667 31 33.5 31.45 33.5 32C33.5 32.55 33.0667 33 32.5328 33Z" fill="url(#paint0_linear)"/>
      <path d="M32.5328 40H12.4672C11.9333 40 11.5 39.56 11.5 39C11.5 38.45 11.9333 38 12.4672 38H32.5328C33.0667 38 33.5 38.45 33.5 39C33.5 39.56 33.0667 40 32.5328 40Z" fill="url(#paint0_linear)"/>
      <path d="M43.5 17H46.5C47.0371 17 47.5 17.4472 47.5 18V29C47.5 29.5528 47.0371 30 46.5 30H43.5C42.9629 30 42.5 29.5528 42.5 29C42.5 28.4495 42.9629 28.0122 43.5 28H45.5V19H43.5C42.9629 18.9878 42.5 18.5405 42.5 18C42.5 17.4472 42.9629 17 43.5 17Z" fill="url(#paint0_linear)"/>
      <path d="M43.5 33H46.5C47.0371 33 47.5 33.4549 47.5 34V46C47.5 46.5451 47.0371 47 46.5 47H43.5C42.9629 47 42.5 46.5451 42.5 46C42.5 45.4231 42.9629 44.9783 43.5 45H45.5V35H43.5C42.9629 35.0217 42.5 34.5668 42.5 34C42.5 33.4549 42.9629 33 43.5 33Z" fill="url(#paint0_linear)"/>
   </symbol> --> 
   
   
   
   <symbol viewBox="0 0 60 64" xmlns="http://www.w3.org/2000/svg" id="sml_distribution">
      <path fill-rule="evenodd" clip-rule="evenodd" d="M20.5 35H45.5V41H43.5V53H22.5V41H20.5V35ZM22.5 39H43.5V37H22.5V39ZM24.4091 41V51H41.5909V41H24.4091Z" fill="url(#paint0_linear)"/>
      <path d="M16.4544 18.5865L15.0865 20.0456L32.5456 36.4135L32.9927 35.9366L33.4117 36.4115L51.9114 20.0882L50.5882 18.5885L36.5186 31.0029L42.8758 20.6724L41.1725 19.6242L33.0547 32.8156L26.9889 19.673L25.173 20.5111L30.2569 31.5264L16.4544 18.5865Z" fill="url(#paint0_linear)"/>
      <path fill-rule="evenodd" clip-rule="evenodd" d="M14.5679 19.8571C19.623 22.1688 26.3786 23 33.5 23C40.6214 23 47.377 22.1688 52.4321 19.8571C52.537 19.3018 52.4979 18.4724 52.463 17.7336C52.4471 17.3961 52.4321 17.0774 52.4321 16.8125C52.4321 8.0795 43.9559 1 33.5 1C23.0441 1 14.5679 8.0795 14.5679 16.8125C14.5679 17.0774 14.5529 17.396 14.537 17.7335C14.5021 18.4723 14.463 19.3018 14.5679 19.8571ZM50.4683 17.8915C50.4782 18.1034 50.4839 18.2339 50.4888 18.3684C50.4906 18.4162 50.4921 18.4626 50.4934 18.5077C48.2278 19.3979 45.5564 20.0421 42.5203 20.4523L42.499 19.9571C42.4934 19.8246 42.4794 19.5854 42.4542 19.2543C42.4127 18.7075 42.3542 18.0993 42.2756 17.4448C42.051 15.5723 41.7108 13.6983 41.2293 11.9403C41.0653 11.3418 40.887 10.7656 40.6936 10.2143C40.2444 8.93448 39.6743 7.68217 39.0114 6.46986C38.4143 5.37808 37.7751 4.37744 37.1348 3.48764C37.0868 3.42098 37.0401 3.35665 36.9948 3.29471C44.7135 4.6177 50.4321 10.2319 50.4321 16.8125C50.4321 17.0891 50.439 17.2693 50.4683 17.8915ZM34.1944 3.01139L34.7397 3.64961C34.7728 3.68837 34.842 3.77234 34.942 3.8988C35.1129 4.11484 35.3044 4.36807 35.5114 4.65576C36.1058 5.4819 36.7013 6.41394 37.2566 7.42946C37.8698 8.55071 38.3952 9.70497 38.8064 10.8766C38.9838 11.3821 39.1483 11.9139 39.3003 12.4687C39.753 14.1213 40.0762 15.9014 40.2899 17.683C40.3648 18.3075 40.4206 18.8869 40.46 19.4058C40.4834 19.7142 40.4961 19.9317 40.5009 20.0429L40.5284 20.683C38.3475 20.8956 36.0003 21 33.5 21C31.3761 21 29.3626 20.9247 27.4678 20.7717L27.4991 20.0429C27.5039 19.9317 27.5166 19.7142 27.54 19.4058C27.5794 18.8869 27.6352 18.3075 27.7101 17.683C27.9238 15.9014 28.247 14.1213 28.6997 12.4687C28.8516 11.9139 29.0162 11.3821 29.1936 10.8766C29.6047 9.70497 30.1302 8.55071 30.7434 7.42946C31.2987 6.41394 31.8942 5.4819 32.4886 4.65576C32.6956 4.36807 32.8871 4.11484 33.058 3.8988C33.158 3.77234 33.2272 3.68837 33.2603 3.64961L33.8134 3.00232C33.9407 3.0042 34.0677 3.00723 34.1944 3.01139ZM16.5066 18.5077C19.0164 19.4939 22.0244 20.1782 25.4743 20.5769L25.5009 19.9571C25.5066 19.8246 25.5206 19.5854 25.5457 19.2543C25.5873 18.7075 25.6458 18.0993 25.7243 17.4448C25.949 15.5723 26.2892 13.6983 26.7707 11.9403C26.9347 11.3418 27.113 10.7656 27.3064 10.2143C27.7555 8.93448 28.3257 7.68217 28.9886 6.46986C29.5857 5.37808 30.2249 4.37744 30.8652 3.48764C30.9558 3.36167 31.042 3.24405 31.1231 3.13504C22.8451 4.08428 16.5679 9.91799 16.5679 16.8125C16.5679 17.0891 16.561 17.2693 16.5317 17.8915C16.5218 18.1034 16.5161 18.2339 16.5112 18.3684C16.5094 18.4162 16.5079 18.4626 16.5066 18.5077Z" fill="url(#paint0_linear)"/>
   </symbol> 
   <symbol viewBox="0 0 60 64" xmlns="http://www.w3.org/2000/svg" id="sml_timecheck">
      <path fill-rule="evenodd" clip-rule="evenodd" d="M40.5 21H36.5V23.0259C26.4714 23.5459 18.5 31.842 18.5 42C18.5 52.4934 27.0066 61 37.5 61C47.9934 61 56.5 52.4934 56.5 42C56.5 39.8068 56.1284 37.7003 55.4447 35.7402L53.5563 36.3989C54.1784 38.1826 54.5 40.068 54.5 42C54.5 51.3888 46.8888 59 37.5 59C28.1112 59 20.5 51.3888 20.5 42C20.5 32.6112 28.1112 25 37.5 25C39.7896 25 42.0126 25.4517 44.0752 26.3177L44.8494 24.4736C43.4743 23.8963 42.0171 23.4761 40.5 23.2355V21ZM20.5 25H6.5V27H20.5V25ZM10.5 29H18.5V31H10.5V29ZM16.5 33H12.5V35H16.5V33ZM52.4386 25.5871L53.9129 26.9386L37.8333 44.4799L29.0871 34.9386L30.5614 33.5871L37.8333 41.5201L52.4386 25.5871Z" fill="url(#paint0_linear)"/>
   </symbol> 
   
   <symbol viewBox="0 0 200 160" xmlns="http://www.w3.org/2000/svg" id="lrg_24hrs">
      <path fill-rule="evenodd" clip-rule="evenodd" d="M174.707 65.8706C175.877 64.6266 177.823 64.5955 179.045 65.7773C180.276 66.9591 180.322 68.9185 179.153 70.1625L158.661 91.964C158.06 92.6171 157.249 92.9281 156.439 92.9281C155.678 92.9281 154.916 92.6482 154.324 92.0573L132.81 71.3132C131.582 70.1314 131.533 68.1721 132.706 66.928C133.876 65.684 135.819 65.6218 137.044 66.8036L154.051 83.2247C155.727 53.617 134.413 27.3059 104.964 23.6672C90.109 21.8322 75.4353 25.9686 63.6471 35.2988C51.862 44.6289 44.3716 58.0644 42.5604 73.1171C40.7492 88.1697 44.8321 103.036 54.0569 114.978C63.2818 126.921 76.5404 134.51 91.3984 136.344C114.299 139.175 136.295 127.761 147.368 107.203C148.181 105.71 150.048 105.151 151.536 105.99C153.022 106.799 153.572 108.696 152.758 110.189C141.71 130.684 120.899 143 98.3301 143C95.7882 143 93.228 142.844 90.6555 142.533C74.1674 140.481 59.4537 132.084 49.2189 118.835C38.9841 105.586 34.4561 89.0716 36.4668 72.3706C38.4745 55.6696 46.7845 40.7725 59.862 30.3849C72.9395 20.0284 89.2034 15.4255 105.707 17.4782C137.587 21.4279 160.945 49.294 160.344 81.1721L174.707 65.8706ZM71.448 93.536V98H94.584V92.96H80.04C81.544 91.744 83.096 90.424 84.696 89C86.296 87.576 87.784 86.048 89.16 84.416C90.536 82.784 91.648 81.088 92.496 79.328C93.344 77.568 93.768 75.76 93.768 73.904C93.768 70.928 92.816 68.504 90.912 66.632C89.008 64.76 86.344 63.824 82.92 63.824C80.808 63.824 78.904 64.232 77.208 65.048C75.512 65.864 74.152 67.096 73.128 68.744C72.104 70.392 71.56 72.448 71.496 74.912H77.448C77.448 73.28 77.896 71.888 78.792 70.736C79.688 69.584 81.016 69.008 82.776 69.008C84.504 69.008 85.744 69.536 86.496 70.592C87.248 71.648 87.624 72.864 87.624 74.24C87.624 75.712 87.168 77.224 86.256 78.776C85.344 80.328 84.128 81.92 82.608 83.552C81.088 85.184 79.36 86.832 77.424 88.496C75.488 90.16 73.496 91.84 71.448 93.536ZM115.032 91.76V98H121.176V91.76H125.592V86.432H121.176V64.4H114.216L98.472 86.864V91.76H115.032ZM115.416 86.432H105.048L115.416 71.168V86.432Z" fill="url(#paint0_linear)"/>
   </symbol> 
   <symbol viewBox="0 0 200 160" xmlns="http://www.w3.org/2000/svg" id="lrg_transport">
      <path fill-rule="evenodd" clip-rule="evenodd" d="M143 32H35V110H53.3001C53.1033 110.969 53 111.973 53 113C53 121.284 59.7157 128 68 128C76.2843 128 83 121.284 83 113C83 111.973 82.8967 110.969 82.6999 110H137H143H143.3C143.103 110.969 143 111.973 143 113C143 121.284 149.716 128 158 128C166.284 128 173 121.284 173 113C173 111.973 172.897 110.969 172.7 110H185V74L173 50H143V32ZM158 98C162.907 98 167.264 100.357 170.001 104H179V80H143V104H145.999C148.736 100.357 153.093 98 158 98ZM169.292 56L178.292 74H161V56H169.292ZM155 56H143V74H155V56ZM80.0011 104H137V50V38H41V104H55.9989C58.7355 100.357 63.0925 98 68 98C72.9075 98 77.2645 100.357 80.0011 104ZM29 44H-1V50H29V44ZM11 56H29V62H11V56ZM29 68H17V74H29V68Z" fill="url(#paint0_linear)"/>
   </symbol> 
   <symbol viewBox="0 0 200 160" xmlns="http://www.w3.org/2000/svg" id="lrg_package">
      <path fill-rule="evenodd" clip-rule="evenodd" d="M50.5 23H149.5L162.7 47H166V53V71H160V137H40V71H34V53V47H37.3L50.5 23ZM44.1476 47H155.852L145.952 29H54.0476L44.1476 47ZM40 53V65H70H130H160V53H40ZM46 131V71H70V89H130V71H154V131H46ZM76 83V71H124V83H76Z" fill="url(#paint0_linear)"/>
   </symbol>
   
   <symbol viewBox="0 0 20 20" xmlns="http://www.w3.org/2000/svg" id="u_expand">
     <path fill-rule="evenodd" clip-rule="evenodd" d="M11 18.9914C11 19.5491 10.552 20 10 20C9.447 20 9 19.5491 9 18.9914V11H1.00862C0.451863 11 0 10.553 0 10C0 9.448 0.451863 9 1.00862 9H9V1.00862C9 0.451863 9.447 0 10 0C10.552 0 11 0.451863 11 1.00862V9H18.9914C19.5491 9 20 9.448 20 10C20 10.553 19.5491 11 18.9914 11H11V18.9914Z"/>
    </symbol> 
   
   <symbol viewBox="0 0 13 21" xmlns="http://www.w3.org/2000/svg" id="u_arrow_right">
      <path fill-rule="evenodd" clip-rule="evenodd" d="M0.147135 19.4445L2.26106 21.5L13 11.058L2.14183 0.5L0 2.58262L8.74424 11.0851L0.147135 19.4445Z"/>
   </symbol> 
   <symbol viewBox="0 0 13 21" xmlns="http://www.w3.org/2000/svg" id="u_arrow_left">
      <path fill-rule="evenodd" clip-rule="evenodd" d="M13.3529 18.9445L11.2389 21L0.5 10.558L11.3582 0L13.5 2.08262L4.75576 10.5851L13.3529 18.9445Z"/>
   </symbol> 
   <symbol viewBox="0 0 20 14" xmlns="http://www.w3.org/2000/svg" id="u_menu">
       <path fill-rule="evenodd" clip-rule="evenodd" d="M0 0H20V2H0V0ZM0 6H20V8H0V6ZM20 12H0V14H20V12Z"/>
   </symbol> 
   <symbol viewBox="0 0 100 28" xmlns="http://www.w3.org/2000/svg" id="u_logo">
    <path fill-rule="evenodd" clip-rule="evenodd" d="M29.63 27.2293C31.15 27.8194 32.7233 28.1144 34.35 28.1144C35.9767 28.1144 37.5367 27.8194 39.03 27.2293C40.55 26.6125 41.8967 25.7274 43.07 24.5741C44.27 23.3941 45.2167 21.9324 45.91 20.1891C46.6033 18.419 46.95 16.3941 46.95 14.1144C46.95 11.781 46.6033 9.74273 45.91 7.99943C45.2167 6.22932 44.27 4.76763 43.07 3.61437C41.8967 2.4343 40.55 1.56265 39.03 0.999432C37.5367 0.409393 35.9767 0.114374 34.35 0.114374C32.75 0.114374 31.19 0.422803 29.67 1.03966C28.1767 1.6297 26.83 2.51476 25.63 3.69483C24.43 4.84809 23.4833 6.29637 22.79 8.03966C22.0967 9.78296 21.75 11.8079 21.75 14.1144C21.75 16.4477 22.0967 18.486 22.79 20.2293C23.4833 21.9726 24.4167 23.4343 25.59 24.6144C26.79 25.7676 28.1367 26.6393 29.63 27.2293ZM37.91 26.1029C37.0033 26.8807 35.8167 27.2695 34.35 27.2695C32.91 27.2695 31.7367 26.8807 30.83 26.1029C29.9233 25.2983 29.2567 23.9439 28.83 22.0397C28.43 20.1086 28.23 17.4669 28.23 14.1144C28.23 10.7351 28.43 8.0933 28.83 6.18909C29.2567 4.25805 29.9233 2.90365 30.83 2.12587C31.7367 1.32127 32.91 0.918971 34.35 0.918971C35.8167 0.918971 37.0033 1.32127 37.91 2.12587C38.8167 2.90365 39.47 4.25805 39.87 6.18909C40.2967 8.0933 40.51 10.7351 40.51 14.1144C40.51 17.4669 40.2967 20.1086 39.87 22.0397C39.47 23.9439 38.8167 25.2983 37.91 26.1029ZM0.630001 26.9879V27.3902H20.07L20.43 20.3902H20.03L18.47 23.7695C18.0433 24.6814 17.59 25.3787 17.11 25.8615C16.6567 26.3443 15.9367 26.5856 14.95 26.5856H8.79V3.6546C8.79 3.11821 8.88334 2.68909 9.07 2.36725C9.25667 2.01859 9.60334 1.75039 10.11 1.56265L10.83 1.24081V0.838512H0.630001V1.24081L1.47 1.56265C2.00333 1.75039 2.35 2.00518 2.51 2.32702C2.67 2.64886 2.75 3.07798 2.75 3.61437V24.6144C2.75 25.1508 2.67 25.5799 2.51 25.9017C2.37667 26.1967 2.03 26.4515 1.47 26.6661L0.630001 26.9879ZM88.03 28.1144C86.4033 28.1144 84.83 27.8194 83.31 27.2293C81.8167 26.6393 80.47 25.7676 79.27 24.6144C78.0967 23.4343 77.1633 21.9726 76.47 20.2293C75.7767 18.486 75.43 16.4477 75.43 14.1144C75.43 11.8079 75.7767 9.78296 76.47 8.03966C77.1633 6.29637 78.11 4.84809 79.31 3.69483C80.51 2.51476 81.8567 1.6297 83.35 1.03966C84.87 0.422803 86.43 0.114374 88.03 0.114374C89.6567 0.114374 91.2167 0.409393 92.71 0.999432C94.23 1.56265 95.5767 2.4343 96.75 3.61437C97.95 4.76763 98.8967 6.22932 99.59 7.99943C100.283 9.74273 100.63 11.781 100.63 14.1144C100.63 16.3941 100.283 18.419 99.59 20.1891C98.8967 21.9324 97.95 23.3941 96.75 24.5741C95.5767 25.7274 94.23 26.6125 92.71 27.2293C91.2167 27.8194 89.6567 28.1144 88.03 28.1144ZM88.03 27.2695C89.4967 27.2695 90.6833 26.8807 91.59 26.1029C92.4967 25.2983 93.15 23.9439 93.55 22.0397C93.9767 20.1086 94.19 17.4669 94.19 14.1144C94.19 10.7351 93.9767 8.0933 93.55 6.18909C93.15 4.25805 92.4967 2.90365 91.59 2.12587C90.6833 1.32127 89.4967 0.918971 88.03 0.918971C86.59 0.918971 85.4167 1.32127 84.51 2.12587C83.6033 2.90365 82.9367 4.25805 82.51 6.18909C82.11 8.0933 81.91 10.7351 81.91 14.1144C81.91 17.4669 82.11 20.1086 82.51 22.0397C82.9367 23.9439 83.6033 25.2983 84.51 26.1029C85.4167 26.8807 86.59 27.2695 88.03 27.2695ZM55.49 26.4247C57.57 27.5512 59.97 28.1144 62.69 28.1144C64.45 28.1144 66.0367 27.9132 67.45 27.5109C68.89 27.1086 70.3033 26.5186 71.69 25.7408V17.0109C71.69 15.9918 72.1967 15.3213 73.21 14.9994L73.77 14.8385V14.4362H62.49V14.8385L64.33 15.3213C65.3967 15.5627 65.93 16.2063 65.93 17.2523V25.2178C65.93 25.7006 65.85 26.1163 65.69 26.465C65.53 26.8136 65.1967 27.0282 64.69 27.1086C64.4767 27.1623 64.25 27.2159 64.01 27.2695C63.7967 27.2964 63.57 27.3098 63.33 27.3098C61.7567 27.3098 60.37 26.8672 59.17 25.9822C57.97 25.0703 57.0367 23.6354 56.37 21.6776C55.73 19.7197 55.41 17.1853 55.41 14.0741C55.41 10.9362 55.7567 8.40173 56.45 6.4707C57.1433 4.53966 58.1167 3.13162 59.37 2.24656C60.65 1.3615 62.1167 0.918971 63.77 0.918971C64.3567 0.918971 64.8233 0.959201 65.17 1.03966C65.5433 1.0933 65.9433 1.18717 66.37 1.32127C66.8233 1.48219 67.1967 1.71016 67.49 2.00518C67.7833 2.3002 68.1033 2.78296 68.45 3.45345L70.69 7.63736H71.09L70.93 2.00518C69.8367 1.38832 68.6767 0.918971 67.45 0.597133C66.25 0.275294 64.9433 0.114374 63.53 0.114374C60.4367 0.114374 57.7967 0.704412 55.61 1.88449C53.45 3.03775 51.7967 4.66035 50.65 6.75231C49.5033 8.84426 48.93 11.2849 48.93 14.0741C48.93 16.9439 49.5033 19.4381 50.65 21.5569C51.8233 23.6489 53.4367 25.2715 55.49 26.4247Z"/>
   </symbol>  
</svg>