<svg width="0" height="0">

   <symbol viewBox="0 0 9 18" xmlns="http://www.w3.org/2000/svg" id="social_facebook">
      <path fill-rule="evenodd" clip-rule="evenodd" d="M2.25 6H0V9H2.25V18H6V9H8.7315L9 6H6V4.74975C6 4.0335 6.144 3.75 6.83625 3.75H9V0H6.144C3.447 0 2.25 1.18725 2.25 3.46125V6Z"/>
   </symbol> 
   <symbol viewBox="0 0 18 15" xmlns="http://www.w3.org/2000/svg" id="social_twitter">
      <path fill-rule="evenodd" clip-rule="evenodd" d="M18 1.77579C17.3378 2.07727 16.626 2.2803 15.879 2.37182C16.6417 1.90346 17.2275 1.1613 17.5028 0.276866C16.7895 0.710623 15.999 1.02594 15.1575 1.19591C14.4848 0.459906 13.524 0 12.462 0C10.0777 0 8.32575 2.28107 8.86425 4.64905C5.796 4.49139 3.075 2.984 1.25325 0.692935C0.28575 2.39489 0.7515 4.62136 2.3955 5.74882C1.791 5.72882 1.221 5.55886 0.72375 5.27507C0.68325 7.02933 1.9095 8.67053 3.6855 9.03584C3.16575 9.18042 2.5965 9.21426 2.0175 9.10044C2.487 10.6047 3.8505 11.6991 5.4675 11.7299C3.915 12.9781 1.959 13.5357 0 13.2988C1.63425 14.3732 3.576 15 5.661 15C12.5175 15 16.3912 9.06199 16.1572 3.73616C16.8787 3.20165 17.505 2.53486 18 1.77579Z"/>
   </symbol> 
   <symbol viewBox="0 0 18 18" xmlns="http://www.w3.org/2000/svg" id="social_instagram">
       <path fill-rule="evenodd" clip-rule="evenodd" d="M9 0C6.55575 0 6.24975 0.0105 5.28975 0.054C2.02125 0.204 0.20475 2.0175 0.05475 5.289C0.0105 6.24975 0 6.55575 0 9C0 11.4443 0.0105 11.751 0.054 12.711C0.204 15.9795 2.0175 17.796 5.289 17.946C6.24975 17.9895 6.55575 18 9 18C11.4443 18 11.751 17.9895 12.711 17.946C15.9765 17.796 17.7975 15.9825 17.9452 12.711C17.9895 11.751 18 11.4443 18 9C18 6.55575 17.9895 6.24975 17.946 5.28975C17.799 2.02425 15.9832 0.20475 12.7118 0.05475C11.751 0.0105 11.4443 0 9 0ZM9 1.62225C11.403 1.62225 11.688 1.63125 12.6375 1.67475C15.0765 1.78575 16.2157 2.943 16.3267 5.364C16.3703 6.31275 16.3785 6.59775 16.3785 9.00075C16.3785 11.4045 16.3695 11.6888 16.3267 12.6375C16.215 15.0563 15.0787 16.2157 12.6375 16.3267C11.688 16.3703 11.4045 16.3792 9 16.3792C6.597 16.3792 6.312 16.3703 5.36325 16.3267C2.91825 16.215 1.785 15.0525 1.674 12.6367C1.6305 11.688 1.6215 11.4037 1.6215 9C1.6215 6.597 1.63125 6.31275 1.674 5.36325C1.78575 2.943 2.922 1.785 5.36325 1.674C6.31275 1.63125 6.597 1.62225 9 1.62225ZM4.3785 9C4.3785 6.44775 6.44775 4.3785 9 4.3785C11.5522 4.3785 13.6215 6.44775 13.6215 9C13.6215 11.553 11.5522 13.6222 9 13.6222C6.44775 13.6222 4.3785 11.5522 4.3785 9ZM9 12C7.34325 12 6 10.6575 6 9C6 7.34325 7.34325 6 9 6C10.6567 6 12 7.34325 12 9C12 10.6575 10.6567 12 9 12ZM12.7238 4.19625C12.7238 3.6 13.2075 3.11625 13.8045 3.11625C14.4008 3.11625 14.8837 3.6 14.8837 4.19625C14.8837 4.7925 14.4008 5.27625 13.8045 5.27625C13.2075 5.27625 12.7238 4.7925 12.7238 4.19625Z"/>
   </symbol> 




   <symbol viewBox="0 0 52 52" xmlns="http://www.w3.org/2000/svg" id="sml_settings">
      <path fill-rule="evenodd" clip-rule="evenodd" d="M25.9995 32C21.8645 32 18.5 28.6353 18.5 24.5C18.5 20.3638 21.8645 17 25.9995 17C30.1345 17 33.5 20.3638 33.5 24.5C33.5 28.6353 30.1345 32 25.9995 32ZM25.9995 15C20.7615 15 16.5 19.2617 16.5 24.5C16.5 29.7383 20.7615 34 25.9995 34C31.2375 34 35.5 29.7383 35.5 24.5C35.5 19.2617 31.2375 15 25.9995 15Z"/>
      <path fill-rule="evenodd" clip-rule="evenodd" d="M48.374 26.85L42.781 27.5815C42.3668 27.6359 42.0292 27.9392 41.9315 28.3453C41.5334 30.0027 40.8784 31.5816 39.9855 33.0406C39.7679 33.3962 39.792 33.8497 40.046 34.1801L43.4865 38.6558C42.4978 39.8759 41.3843 40.9903 40.1639 41.9798L35.6895 38.5409C35.359 38.287 34.9045 38.2628 34.5487 38.4815C33.0895 39.3752 31.5084 40.0311 29.8496 40.4311C29.4445 40.5289 29.1412 40.8664 29.0867 41.2805L28.3541 46.8735C26.7659 47.0418 25.2432 47.0418 23.655 46.8756L22.9233 41.2845C22.8689 40.8704 22.5656 40.5329 22.1595 40.4362C20.4987 40.0372 18.9155 39.3812 17.4533 38.4865C17.0976 38.2699 16.6441 38.293 16.3135 38.547L11.8371 41.9868C11.2959 41.5465 10.7699 41.077 10.269 40.5893L9.9123 40.2316C9.42153 39.7299 8.95293 39.2059 8.51456 38.6659L11.954 34.1922C12.208 33.8617 12.2321 33.4083 12.0135 33.0517C11.1166 31.5897 10.4595 30.0058 10.0594 28.3433C9.96168 27.9372 9.62409 27.6339 9.21091 27.5795L3.61791 26.848C3.54938 26.182 3.51008 25.509 3.5 24.844V24.1719C3.51008 23.4958 3.54938 22.8197 3.61891 22.1517L9.21091 21.4202C9.62409 21.3658 9.96168 21.0625 10.0594 20.6565C10.4595 18.995 11.1166 17.4111 12.0135 15.9481C12.2321 15.5924 12.208 15.139 11.954 14.8075L8.51456 10.3339C8.95293 9.79484 9.41951 9.27292 9.90525 8.77619L10.262 8.4195C10.7679 7.92479 11.2959 7.45425 11.8371 7.01394L16.3135 10.4528C16.6441 10.7067 17.0965 10.7309 17.4533 10.5132C18.9155 9.61852 20.4987 8.96259 22.1595 8.56459C22.5656 8.46787 22.8689 8.12932 22.9233 7.71622L23.655 2.12519C25.2432 1.95793 26.7659 1.95793 28.3541 2.12721L29.0867 7.72025C29.1412 8.13335 29.4445 8.47089 29.8496 8.56862C31.5084 8.96863 33.0895 9.62456 34.5487 10.5193C34.9035 10.7369 35.3569 10.7137 35.6895 10.4588L40.1639 7.02099C41.3843 8.01043 42.4978 9.12481 43.4865 10.344L40.046 14.8196C39.792 15.1501 39.7679 15.6045 39.9855 15.9602C40.8784 17.4181 41.5334 18.998 41.9315 20.6545C42.0292 21.0605 42.3668 21.3638 42.781 21.4182L48.374 22.1497C48.4577 22.9447 48.5 23.7326 48.5 24.5004C48.5 25.2681 48.4577 26.0561 48.374 26.85ZM50.2633 21.115C50.2009 20.6659 49.8464 20.3135 49.3962 20.2541L43.704 19.5099C43.3122 18.1183 42.7573 16.779 42.0473 15.5143L45.549 10.9597C45.825 10.6012 45.827 10.1008 45.5541 9.73928C44.1864 7.93177 42.576 6.32062 40.7683 4.95316C40.4067 4.67926 39.9072 4.68027 39.5477 4.95719L34.9935 8.4564C33.7286 7.74548 32.3881 7.18863 30.9943 6.79591L30.249 1.10352C30.1896 0.654408 29.8381 0.299955 29.3889 0.237523C27.1048 -0.0776587 24.9043 -0.0796726 22.6221 0.234502C22.173 0.296934 21.8195 0.651387 21.7611 1.1015L21.0158 6.79088C19.6199 7.18259 18.2765 7.73844 17.0085 8.45036L12.4544 4.95014C12.0938 4.67423 11.5953 4.67221 11.2327 4.9451C10.4119 5.5664 9.6143 6.25316 8.85493 6.9963L8.48432 7.36787C7.75215 8.11504 7.06731 8.90853 6.44794 9.7272C6.174 10.0897 6.17602 10.5892 6.45197 10.9487L9.95168 15.5012C9.23864 16.7699 8.6807 18.1142 8.28692 19.5119L2.59574 20.2571C2.14556 20.3155 1.79106 20.6689 1.72861 21.118C1.59165 22.1089 1.51511 23.1269 1.5 24.1561V24.8569C1.51511 25.8719 1.59165 26.889 1.72861 27.8808C1.79106 28.3299 2.14556 28.6824 2.59574 28.7418L8.28692 29.4859C8.6807 30.8846 9.23864 32.2289 9.95168 33.4967L6.45197 38.0492C6.17602 38.4087 6.174 38.9092 6.44794 39.2707C7.06731 40.0893 7.75215 40.8838 8.49137 41.637L8.86299 42.0096C9.6143 42.7447 10.4119 43.4325 11.2327 44.0528C11.5943 44.3256 12.0938 44.3236 12.4544 44.0477L17.0085 40.5475C18.2765 41.2594 19.6199 41.8163 21.0158 42.208L21.7611 47.8974C21.8195 48.3465 22.173 48.7019 22.6221 48.7634C23.7602 48.9204 24.8952 49 25.996 49C27.1028 49 28.2438 48.9194 29.3889 48.7613C29.8381 48.6989 30.1896 48.3435 30.249 47.8943L30.9943 42.202C32.3881 41.8102 33.7286 41.2534 34.9935 40.5425L39.5477 44.0417C39.9072 44.3176 40.4067 44.3196 40.7683 44.0457C42.576 42.6782 44.1864 41.0671 45.5541 39.2596C45.827 38.8981 45.825 38.3976 45.549 38.0381L42.0473 33.4836C42.7573 32.2199 43.3122 30.8806 43.704 29.488L49.3962 28.7438C49.8464 28.6854 50.2009 28.332 50.2633 27.8829C50.4204 26.7409 50.5 25.6021 50.5 24.4994C50.5 23.3968 50.4204 22.2579 50.2633 21.115Z"/>
   </symbol> 
   <symbol viewBox="0 0 52 52" xmlns="http://www.w3.org/2000/svg" id="sml_chat">
      <path fill-rule="evenodd" clip-rule="evenodd" d="M19.0041 0C10.1546 0 3 7.91918 3 17.6072C3 25.6213 7.43067 32.7536 14 34.9544V44C14 44.8329 14.4794 45.254 15.2909 45.6322C15.3475 45.6586 15.4751 45.7152 15.567 45.756L15.5672 45.7561C15.6172 45.7783 15.6567 45.7958 15.6684 45.8012C15.9601 45.9331 16.2641 46 16.5728 46C17.1036 46 17.6201 45.8031 18.0202 45.4436L29.4166 35.2132H32.9971C41.8457 35.2132 49 27.2948 49 17.6072C49 7.91939 41.8456 0 32.9971 0H19.0041ZM16.3474 43.9141C16.2631 43.8767 16.1701 43.8354 16.1357 43.8194C16.0824 43.7946 16.0372 43.772 16 43.7521V33.449L15.2627 33.2483C9.22818 31.6055 5 25.0719 5 17.6072C5 8.98101 11.307 2 19.0041 2H32.9971C40.6931 2 47 8.9812 47 17.6072C47 26.2329 40.6934 33.2132 32.9971 33.2132H28.6506L16.6838 43.9556C16.6513 43.9847 16.6113 44 16.5728 44C16.5513 44 16.5277 43.9948 16.4992 43.9819C16.4771 43.9717 16.415 43.9442 16.3474 43.9141ZM36 18C36 17.448 35.5491 17 34.9914 17H27V9.00862C27 8.45186 26.552 8 26 8C25.447 8 25 8.45186 25 9.00862V17H17.0086C16.4519 17 16 17.448 16 18C16 18.553 16.4519 19 17.0086 19H25V26.9914C25 27.5491 25.447 28 26 28C26.552 28 27 27.5491 27 26.9914V19H34.9914C35.5491 19 36 18.553 36 18Z"/>
   </symbol> 
   <symbol viewBox="0 0 52 52" xmlns="http://www.w3.org/2000/svg" id="sml_email">
      <path fill-rule="evenodd" clip-rule="evenodd" d="M43 9.79885V2H9V9.79885L26 23.7079L43 9.79885ZM45 8.16248L46.3758 7.0368C46.251 7.01265 46.1221 7 45.9901 7H45V8.16248ZM45 5H45.9901C46.7726 5 47.5025 5.22358 48.1194 5.61023L48.1407 5.5928L48.1944 5.65837C49.2824 6.37446 50 7.60562 50 9.00426V32.9957C50 35.211 48.2047 37 45.9901 37H6.00989C3.79405 37 2 35.2072 2 32.9957V9.00426C2 7.60303 2.71831 6.37233 3.8067 5.65707L3.85928 5.5928L3.88019 5.60991C4.49728 5.22334 5.22741 5 6.00989 5H7V0H45V5ZM7 8.16248V7H6.00989C5.87788 7 5.74889 7.01262 5.62406 7.03672L7 8.16248ZM38 6V8H14V6H38ZM14 10V12H33V10H14ZM4.1008 8.37454C4.03538 8.5725 4 8.78419 4 9.00426V32.9957C4 33.1761 4.02386 33.3509 4.06861 33.5172L17.9115 19.6742L4.1008 8.37454ZM6.00989 35C5.82771 35 5.65125 34.9759 5.48353 34.9307L19.4526 20.9616L19.307 20.8159L26 26.2921L32.9043 20.6431L32.5858 20.9616L46.5467 34.9225C46.37 34.973 46.1833 35 45.9901 35H6.00989ZM47.9395 33.4869C47.979 33.3298 48 33.1652 48 32.9957V9.00426C48 8.78435 47.9645 8.5727 47.899 8.37472L34.1096 19.657L47.9395 33.4869Z"/>
   </symbol> 
   <symbol viewBox="0 0 52 52" xmlns="http://www.w3.org/2000/svg" id="sml_favourite">
      <path fill-rule="evenodd" clip-rule="evenodd" d="M33 16.0934H48.6022C49.647 16.1134 50.5627 16.7936 50.8811 17.7838C51.2025 18.764 50.8579 19.8442 50.0217 20.4644L37.8616 29.5263L42.2803 43.8593C42.5856 44.8495 42.229 45.9198 41.3897 46.5299C40.9616 46.84 40.4608 47 39.941 47C39.4443 47 38.9648 46.85 38.5527 46.5699L26.0006 37.9881L13.4496 46.5699C12.6134 47.15 11.4407 47.13 10.6146 46.5299C9.77435 45.9198 9.41569 44.8495 9.72095 43.8593L14.1367 29.5263L1.97855 20.4644C1.14336 19.8442 0.797801 18.764 1.11818 17.7838C1.43654 16.7936 2.35233 16.1134 3.39606 16.0934H19L23.6915 1.62034C24.0341 0.650138 24.9619 0 26.0006 0C27.0373 0 27.9652 0.650138 28.3088 1.62034L33 16.0934ZM35.7343 29.4149C35.6103 29.0147 35.7535 28.5745 36.0932 28.3244L48.827 18.8406C48.9742 18.7306 49.0357 18.5405 48.9793 18.3704C48.9218 18.1903 48.7605 18.0803 48.576 18.0703H32C31.5796 18.0603 31.1391 17.48 31 17.0799L26.409 2.26387C26.286 1.91373 25.7134 1.91373 25.5924 2.25387L21 17.0799C20.8609 17.48 19.4204 18.0603 19 18.0703H3.42238C3.2389 18.0803 3.07659 18.2003 3.02114 18.3704C2.96368 18.5405 3.02618 18.7306 3.17438 18.8506L15.9052 28.3244C16.2449 28.5745 16.3881 29.0147 16.2641 29.4149L11.6377 44.421C11.5843 44.6011 11.6468 44.7911 11.795 44.9012C11.9795 45.0312 12.1095 45.0312 12.296 44.9112L25.4291 35.9375C25.6015 35.8175 25.8011 35.7575 26.0007 35.7575C26.2003 35.7575 26.4009 35.8175 26.5723 35.9375L39.7044 44.9112C39.8546 45.0112 40.0592 45.0112 40.2105 44.9012C40.3546 44.7911 40.4181 44.6011 40.3637 44.431L35.7343 29.4149Z"/>
   </symbol> 
   <symbol viewBox="0 0 52 52" xmlns="http://www.w3.org/2000/svg" id="sml_attach">
      <path fill-rule="evenodd" clip-rule="evenodd" d="M48.0597 2.4706C46.4831 0.876891 44.3863 0 42.156 0C39.9257 0 37.8299 0.877897 36.2543 2.4706L13.7558 25.1963C11.4587 27.5209 11.4587 31.2993 13.7558 33.6219C14.871 34.7474 16.3509 35.3676 17.9264 35.3676C19.501 35.3676 20.9819 34.7474 22.0961 33.6219L38.5295 17.0203C38.9181 16.6267 38.9181 15.9894 38.5295 15.5968C38.1398 15.2031 37.509 15.2031 37.1203 15.5968L20.6859 32.1983C19.211 33.6893 16.6409 33.6883 15.1659 32.1983C13.6452 30.661 13.6452 28.1581 15.1659 26.6208L37.6635 3.89416C38.8623 2.68202 40.4578 2.01353 42.156 2.01353C43.8541 2.01353 45.4506 2.68101 46.6505 3.89416C49.127 6.39697 49.127 10.4693 46.6505 12.9711L18.5214 41.388C15.0882 44.8543 9.50344 44.8543 6.07126 41.388C4.40799 39.7087 3.49314 37.4747 3.49314 35.0978C3.49314 32.7218 4.40699 30.4878 6.06926 28.8085L28.1353 6.5198C28.5239 6.12615 28.5239 5.48887 28.1353 5.09623C27.7456 4.70259 27.1148 4.70259 26.7261 5.09623L4.66012 27.385C2.62114 29.4448 1.499 32.1832 1.5 35.0978C1.5 38.0123 2.62214 40.7517 4.66211 42.8126C6.76686 44.9369 9.53234 46 12.2968 46C15.0613 46 17.8258 44.9369 19.9305 42.8126L48.0597 14.3947C51.3134 11.1076 51.3134 5.75868 48.0597 2.4706Z"/>
   </symbol> 
   <symbol viewBox="0 0 52 52" xmlns="http://www.w3.org/2000/svg" id="sml_contact">
      <path fill-rule="evenodd" clip-rule="evenodd" d="M45.5 12H39.5C39.2358 11.7503 38.7882 12.1958 38.5 13V47H6.5V2H45.5V12ZM46.5 0H5.5C4.94763 0 4.5 0.445815 4.5 1V48C4.5 48.5542 4.94763 49 5.5 49H39.5C40.34 49 40.7876 48.5542 40.5 48V14H46.5C47.0524 13.7212 47.5 13.2754 47.5 13V1C47.5 0.445815 47.0524 0 46.5 0Z"/>
      <path fill-rule="evenodd" clip-rule="evenodd" d="M14.399 18.84C14.244 19.05 13.991 19.15 13.638 19.15C13.339 19.15 13.074 19.04 12.844 18.82C12.615 18.6 12.5 18.36 12.5 18.08C12.5 17.92 12.526 17.75 12.58 17.58C12.634 17.41 12.722 17.17 12.844 16.87L15.85 9.24C15.8766 9.17205 15.9047 9.09932 15.9344 9.02242C16.0008 8.85034 16.0754 8.65733 16.159 8.45C16.279 8.14 16.407 7.88 16.543 7.68C16.68 7.48 16.859 7.31 17.081 7.19C17.302 7.06 17.576 7 17.902 7C18.233 7 18.51 7.06 18.732 7.19C18.953 7.31 19.132 7.48 19.269 7.67C19.405 7.87 19.52 8.08 19.613 8.31C19.707 8.54 19.826 8.84 19.97 9.22L23.04 16.8C23.28 17.38 23.4 17.8 23.4 18.06C23.4 18.33 23.287 18.58 23.06 18.81C22.833 19.04 22.559 19.15 22.238 19.15C22.051 19.15 21.891 19.12 21.757 19.05C21.624 18.98 21.511 18.89 21.421 18.78C21.33 18.66 21.232 18.49 21.128 18.25C21.024 18.01 20.934 17.8 20.86 17.62L20.298 16.15H15.522L14.96 17.65C14.741 18.24 14.555 18.64 14.399 18.84ZM19.657 14.36L17.886 9.51L16.147 14.36H19.657Z"/>
      <path d="M12.4672 26H32.5328C33.0667 26 33.5 25.56 33.5 25C33.5 24.45 33.0667 24 32.5328 24H12.4672C11.9333 24 11.5 24.45 11.5 25C11.5 25.56 11.9333 26 12.4672 26Z"/>
      <path d="M32.5328 33H12.4672C11.9333 33 11.5 32.55 11.5 32C11.5 31.45 11.9333 31 12.4672 31H32.5328C33.0667 31 33.5 31.45 33.5 32C33.5 32.55 33.0667 33 32.5328 33Z"/>
      <path d="M32.5328 40H12.4672C11.9333 40 11.5 39.56 11.5 39C11.5 38.45 11.9333 38 12.4672 38H32.5328C33.0667 38 33.5 38.45 33.5 39C33.5 39.56 33.0667 40 32.5328 40Z"/>
      <path d="M43.5 17H46.5C47.0371 17 47.5 17.4472 47.5 18V29C47.5 29.5528 47.0371 30 46.5 30H43.5C42.9629 30 42.5 29.5528 42.5 29C42.5 28.4495 42.9629 28.0122 43.5 28H45.5V19H43.5C42.9629 18.9878 42.5 18.5405 42.5 18C42.5 17.4472 42.9629 17 43.5 17Z"/>
      <path d="M43.5 33H46.5C47.0371 33 47.5 33.4549 47.5 34V46C47.5 46.5451 47.0371 47 46.5 47H43.5C42.9629 47 42.5 46.5451 42.5 46C42.5 45.4231 42.9629 44.9783 43.5 45H45.5V35H43.5C42.9629 35.0217 42.5 34.5668 42.5 34C42.5 33.4549 42.9629 33 43.5 33Z"/>
   </symbol> 
   <symbol viewBox="0 0 52 52" xmlns="http://www.w3.org/2000/svg" id="sml_distribution">
      <path fill-rule="evenodd" clip-rule="evenodd" d="M13 34H38V40H36V52H15V40H13V34ZM15 38H36V36H15V38ZM16.9091 40V50H34.0909V40H16.9091Z"/>
      <path d="M8.95443 17.5865L7.58655 19.0456L25.0456 35.4135L25.4927 34.9366L25.9117 35.4115L44.4114 19.0882L43.0882 17.5885L29.0186 30.0029L35.3758 19.6724L33.6725 18.6242L25.5547 31.8156L19.4889 18.673L17.673 19.5111L22.7569 30.5264L8.95443 17.5865Z"/>
      <path fill-rule="evenodd" clip-rule="evenodd" d="M7.06791 18.8571C12.123 21.1688 18.8786 22 26 22C33.1214 22 39.877 21.1688 44.9321 18.8571C45.037 18.3018 44.9979 17.4724 44.963 16.7336C44.9471 16.3961 44.9321 16.0774 44.9321 15.8125C44.9321 7.0795 36.4559 0 26 0C15.5441 0 7.06791 7.0795 7.06791 15.8125C7.06791 16.0774 7.05289 16.396 7.03697 16.7335C7.00213 17.4723 6.96302 18.3018 7.06791 18.8571ZM42.9683 16.8915C42.9782 17.1034 42.9839 17.2339 42.9888 17.3684C42.9906 17.4162 42.9921 17.4626 42.9934 17.5077C40.7278 18.3979 38.0564 19.0421 35.0203 19.4523L34.999 18.9571C34.9934 18.8246 34.9794 18.5854 34.9542 18.2543C34.9127 17.7075 34.8542 17.0993 34.7756 16.4448C34.551 14.5723 34.2108 12.6983 33.7293 10.9403C33.5653 10.3418 33.387 9.76558 33.1936 9.21434C32.7444 7.93448 32.1743 6.68217 31.5114 5.46986C30.9143 4.37808 30.2751 3.37744 29.6348 2.48764C29.5868 2.42098 29.5401 2.35665 29.4948 2.29471C37.2135 3.6177 42.9321 9.2319 42.9321 15.8125C42.9321 16.0891 42.939 16.2693 42.9683 16.8915ZM26.6944 2.01139L27.2397 2.64961C27.2728 2.68837 27.342 2.77234 27.442 2.8988C27.6129 3.11484 27.8044 3.36807 28.0114 3.65576C28.6058 4.4819 29.2013 5.41394 29.7566 6.42946C30.3698 7.55071 30.8952 8.70497 31.3064 9.87657C31.4838 10.3821 31.6483 10.9139 31.8003 11.4687C32.253 13.1213 32.5762 14.9014 32.7899 16.683C32.8648 17.3075 32.9206 17.8869 32.96 18.4058C32.9834 18.7142 32.9961 18.9317 33.0009 19.0429L33.0284 19.683C30.8475 19.8956 28.5003 20 26 20C23.8761 20 21.8626 19.9247 19.9678 19.7717L19.9991 19.0429C20.0039 18.9317 20.0166 18.7142 20.04 18.4058C20.0794 17.8869 20.1352 17.3075 20.2101 16.683C20.4238 14.9014 20.747 13.1213 21.1997 11.4687C21.3516 10.9139 21.5162 10.3821 21.6936 9.87657C22.1047 8.70497 22.6302 7.55071 23.2434 6.42946C23.7987 5.41394 24.3942 4.4819 24.9886 3.65576C25.1956 3.36807 25.3871 3.11484 25.558 2.8988C25.658 2.77234 25.7272 2.68837 25.7603 2.64961L26.3134 2.00232C26.4407 2.0042 26.5677 2.00723 26.6944 2.01139ZM9.00656 17.5077C11.5164 18.4939 14.5244 19.1782 17.9743 19.5769L18.0009 18.9571C18.0066 18.8246 18.0206 18.5854 18.0457 18.2543C18.0873 17.7075 18.1458 17.0993 18.2243 16.4448C18.449 14.5723 18.7892 12.6983 19.2707 10.9403C19.4347 10.3418 19.613 9.76558 19.8064 9.21434C20.2555 7.93448 20.8257 6.68217 21.4886 5.46986C22.0857 4.37808 22.7249 3.37744 23.3652 2.48764C23.4558 2.36167 23.542 2.24405 23.6231 2.13504C15.3451 3.08428 9.06791 8.91799 9.06791 15.8125C9.06791 16.0891 9.06099 16.2693 9.03175 16.8915C9.02179 17.1034 9.01607 17.2339 9.01116 17.3684C9.00941 17.4162 9.00788 17.4626 9.00656 17.5077Z"/>
   </symbol> 
   <symbol viewBox="0 0 52 52" xmlns="http://www.w3.org/2000/svg" id="sml_timecheck">
      <path fill-rule="evenodd" clip-rule="evenodd" d="M35 0H31V2.02586C20.9714 2.54588 13 10.842 13 21C13 31.4934 21.5066 40 32 40C42.4934 40 51 31.4934 51 21C51 18.8068 50.6284 16.7003 49.9447 14.7402L48.0563 15.3989C48.6784 17.1826 49 19.068 49 21C49 30.3888 41.3888 38 32 38C22.6112 38 15 30.3888 15 21C15 11.6112 22.6112 4 32 4C34.2896 4 36.5126 4.45175 38.5752 5.31769L39.3494 3.47362C37.9743 2.89633 36.5171 2.47614 35 2.2355V0ZM15 4H1V6H15V4ZM5 8H13V10H5V8ZM11 12H7V14H11V12ZM46.9386 4.58712L48.4129 5.93857L32.3333 23.4799L23.5871 13.9386L25.0614 12.5871L32.3333 20.5201L46.9386 4.58712Z"/>
   </symbol> 


   <symbol viewBox="0 0 186 126" xmlns="http://www.w3.org/2000/svg" id="lrg_24hrs">
      <path fill-rule="evenodd" clip-rule="evenodd" d="M159.707 48.8706C160.877 47.6266 162.823 47.5955 164.045 48.7773C165.276 49.9591 165.322 51.9185 164.153 53.1625L143.661 74.964C143.06 75.6171 142.249 75.9281 141.439 75.9281C140.678 75.9281 139.916 75.6482 139.324 75.0573L117.81 54.3132C116.582 53.1314 116.533 51.1721 117.706 49.928C118.876 48.684 120.819 48.6218 122.044 49.8036L139.051 66.2247C140.727 36.617 119.413 10.3059 89.964 6.66716C75.109 4.83223 60.4353 8.9686 48.6471 18.2988C36.862 27.6289 29.3716 41.0644 27.5604 56.1171C25.7492 71.1697 29.8321 86.0358 39.0569 97.9784C48.2818 109.921 61.5404 117.51 76.3984 119.344C99.2993 122.175 121.295 110.761 132.368 90.2033C133.181 88.7104 135.048 88.1506 136.536 88.9903C138.022 89.799 138.572 91.6961 137.758 93.1889C126.71 113.684 105.899 126 83.3301 126C80.7882 126 78.228 125.844 75.6555 125.533C59.1674 123.481 44.4537 115.084 34.2189 101.835C23.9841 88.586 19.4561 72.0716 21.4668 55.3706C23.4745 38.6696 31.7845 23.7725 44.862 13.3849C57.9395 3.0284 74.2034 -1.57448 90.7069 0.478152C122.587 4.42792 145.945 32.294 145.344 64.1721L159.707 48.8706ZM56.448 76.536V81H79.584V75.96H65.04C66.544 74.744 68.096 73.424 69.696 72C71.296 70.576 72.784 69.048 74.16 67.416C75.536 65.784 76.648 64.088 77.496 62.328C78.344 60.568 78.768 58.76 78.768 56.904C78.768 53.928 77.816 51.504 75.912 49.632C74.008 47.76 71.344 46.824 67.92 46.824C65.808 46.824 63.904 47.232 62.208 48.048C60.512 48.864 59.152 50.096 58.128 51.744C57.104 53.392 56.56 55.448 56.496 57.912H62.448C62.448 56.28 62.896 54.888 63.792 53.736C64.688 52.584 66.016 52.008 67.776 52.008C69.504 52.008 70.744 52.536 71.496 53.592C72.248 54.648 72.624 55.864 72.624 57.24C72.624 58.712 72.168 60.224 71.256 61.776C70.344 63.328 69.128 64.92 67.608 66.552C66.088 68.184 64.36 69.832 62.424 71.496C60.488 73.16 58.496 74.84 56.448 76.536ZM100.032 74.76V81H106.176V74.76H110.592V69.432H106.176V47.4H99.216L83.472 69.864V74.76H100.032ZM100.416 69.432H90.048L100.416 54.168V69.432Z" fill="url(#paint0_linear)"/>
      <defs>
      <linearGradient id="paint0_linear" x1="93" y1="-63" x2="-31.885" y2="79.7257" gradientUnits="userSpaceOnUse">
      <stop stop-color="#FFC105"/>
      <stop offset="1" stop-color="#737CFF"/>
      </linearGradient>
      <clipPath id="clip0">
      <rect width="186" height="126" fill="white"/>
      </clipPath>
      </defs>
   </symbol> 
   <symbol viewBox="0 0 186 126" xmlns="http://www.w3.org/2000/svg" id="lrg_transport">
      <path fill-rule="evenodd" clip-rule="evenodd" d="M144 16H36V94H54.3001C54.1033 94.9693 54 95.9726 54 97C54 105.284 60.7157 112 69 112C77.2843 112 84 105.284 84 97C84 95.9726 83.8967 94.9693 83.6999 94H138H144H144.3C144.103 94.9693 144 95.9726 144 97C144 105.284 150.716 112 159 112C167.284 112 174 105.284 174 97C174 95.9726 173.897 94.9693 173.7 94H186V58L174 34H144V16ZM159 82C163.907 82 168.264 84.3567 171.001 88H180V64H144V88H146.999C149.736 84.3567 154.093 82 159 82ZM170.292 40L179.292 58H162V40H170.292ZM156 40H144V58H156V40ZM81.0011 88H138V34V22H42V88H56.9989C59.7355 84.3567 64.0925 82 69 82C73.9075 82 78.2645 84.3567 81.0011 88ZM30 28H0V34H30V28ZM12 40H30V46H12V40ZM30 52H18V58H30V52Z" fill="url(#paint0_linear)"/>
      <defs>
      <linearGradient id="paint0_linear" x1="93" y1="-32" x2="14.7486" y2="119.612" gradientUnits="userSpaceOnUse">
      <stop stop-color="#FFC105"/>
      <stop offset="1" stop-color="#737CFF"/>
      </linearGradient>
      </defs>
   </symbol> 
   <symbol viewBox="0 0 186 126" xmlns="http://www.w3.org/2000/svg" id="lrg_package">
      <path fill-rule="evenodd" clip-rule="evenodd" d="M43.5 6H142.5L155.7 30H159V36V54H153V120H33V54H27V36V30H30.3L43.5 6ZM37.1476 30H148.852L138.952 12H47.0476L37.1476 30ZM33 36V48H63H123H153V36H33ZM39 114V54H63V72H123V54H147V114H39ZM69 66V54H117V66H69Z" fill="url(#paint0_linear)"/>
      <defs>
      <linearGradient id="paint0_linear" x1="93" y1="-51" x2="-19.7858" y2="79.5941" gradientUnits="userSpaceOnUse">
      <stop stop-color="#FFC105"/>
      <stop offset="1" stop-color="#737CFF"/>
      </linearGradient>
      </defs>   
   </symbol>
  
   
   <symbol viewBox="0 0 13 21" xmlns="http://www.w3.org/2000/svg" id="u_arrow_right">
      <path fill-rule="evenodd" clip-rule="evenodd" d="M0.147135 19.4445L2.26106 21.5L13 11.058L2.14183 0.5L0 2.58262L8.74424 11.0851L0.147135 19.4445Z"/>
   </symbol> 
   <symbol viewBox="0 0 13 21" xmlns="http://www.w3.org/2000/svg" id="u_arrow_left">
      <path fill-rule="evenodd" clip-rule="evenodd" d="M13.3529 18.9445L11.2389 21L0.5 10.558L11.3582 0L13.5 2.08262L4.75576 10.5851L13.3529 18.9445Z"/>
   </symbol> 
   <symbol viewBox="0 0 20 14" xmlns="http://www.w3.org/2000/svg" id="u_menu">
       <path fill-rule="evenodd" clip-rule="evenodd" d="M0 0H20V2H0V0ZM0 6H20V8H0V6ZM20 12H0V14H20V12Z"/>
   </symbol> 
   <symbol viewBox="0 0 100 28" xmlns="http://www.w3.org/2000/svg" id="u_logo">
    <path fill-rule="evenodd" clip-rule="evenodd" d="M29.63 27.2293C31.15 27.8194 32.7233 28.1144 34.35 28.1144C35.9767 28.1144 37.5367 27.8194 39.03 27.2293C40.55 26.6125 41.8967 25.7274 43.07 24.5741C44.27 23.3941 45.2167 21.9324 45.91 20.1891C46.6033 18.419 46.95 16.3941 46.95 14.1144C46.95 11.781 46.6033 9.74273 45.91 7.99943C45.2167 6.22932 44.27 4.76763 43.07 3.61437C41.8967 2.4343 40.55 1.56265 39.03 0.999432C37.5367 0.409393 35.9767 0.114374 34.35 0.114374C32.75 0.114374 31.19 0.422803 29.67 1.03966C28.1767 1.6297 26.83 2.51476 25.63 3.69483C24.43 4.84809 23.4833 6.29637 22.79 8.03966C22.0967 9.78296 21.75 11.8079 21.75 14.1144C21.75 16.4477 22.0967 18.486 22.79 20.2293C23.4833 21.9726 24.4167 23.4343 25.59 24.6144C26.79 25.7676 28.1367 26.6393 29.63 27.2293ZM37.91 26.1029C37.0033 26.8807 35.8167 27.2695 34.35 27.2695C32.91 27.2695 31.7367 26.8807 30.83 26.1029C29.9233 25.2983 29.2567 23.9439 28.83 22.0397C28.43 20.1086 28.23 17.4669 28.23 14.1144C28.23 10.7351 28.43 8.0933 28.83 6.18909C29.2567 4.25805 29.9233 2.90365 30.83 2.12587C31.7367 1.32127 32.91 0.918971 34.35 0.918971C35.8167 0.918971 37.0033 1.32127 37.91 2.12587C38.8167 2.90365 39.47 4.25805 39.87 6.18909C40.2967 8.0933 40.51 10.7351 40.51 14.1144C40.51 17.4669 40.2967 20.1086 39.87 22.0397C39.47 23.9439 38.8167 25.2983 37.91 26.1029ZM0.630001 26.9879V27.3902H20.07L20.43 20.3902H20.03L18.47 23.7695C18.0433 24.6814 17.59 25.3787 17.11 25.8615C16.6567 26.3443 15.9367 26.5856 14.95 26.5856H8.79V3.6546C8.79 3.11821 8.88334 2.68909 9.07 2.36725C9.25667 2.01859 9.60334 1.75039 10.11 1.56265L10.83 1.24081V0.838512H0.630001V1.24081L1.47 1.56265C2.00333 1.75039 2.35 2.00518 2.51 2.32702C2.67 2.64886 2.75 3.07798 2.75 3.61437V24.6144C2.75 25.1508 2.67 25.5799 2.51 25.9017C2.37667 26.1967 2.03 26.4515 1.47 26.6661L0.630001 26.9879ZM88.03 28.1144C86.4033 28.1144 84.83 27.8194 83.31 27.2293C81.8167 26.6393 80.47 25.7676 79.27 24.6144C78.0967 23.4343 77.1633 21.9726 76.47 20.2293C75.7767 18.486 75.43 16.4477 75.43 14.1144C75.43 11.8079 75.7767 9.78296 76.47 8.03966C77.1633 6.29637 78.11 4.84809 79.31 3.69483C80.51 2.51476 81.8567 1.6297 83.35 1.03966C84.87 0.422803 86.43 0.114374 88.03 0.114374C89.6567 0.114374 91.2167 0.409393 92.71 0.999432C94.23 1.56265 95.5767 2.4343 96.75 3.61437C97.95 4.76763 98.8967 6.22932 99.59 7.99943C100.283 9.74273 100.63 11.781 100.63 14.1144C100.63 16.3941 100.283 18.419 99.59 20.1891C98.8967 21.9324 97.95 23.3941 96.75 24.5741C95.5767 25.7274 94.23 26.6125 92.71 27.2293C91.2167 27.8194 89.6567 28.1144 88.03 28.1144ZM88.03 27.2695C89.4967 27.2695 90.6833 26.8807 91.59 26.1029C92.4967 25.2983 93.15 23.9439 93.55 22.0397C93.9767 20.1086 94.19 17.4669 94.19 14.1144C94.19 10.7351 93.9767 8.0933 93.55 6.18909C93.15 4.25805 92.4967 2.90365 91.59 2.12587C90.6833 1.32127 89.4967 0.918971 88.03 0.918971C86.59 0.918971 85.4167 1.32127 84.51 2.12587C83.6033 2.90365 82.9367 4.25805 82.51 6.18909C82.11 8.0933 81.91 10.7351 81.91 14.1144C81.91 17.4669 82.11 20.1086 82.51 22.0397C82.9367 23.9439 83.6033 25.2983 84.51 26.1029C85.4167 26.8807 86.59 27.2695 88.03 27.2695ZM55.49 26.4247C57.57 27.5512 59.97 28.1144 62.69 28.1144C64.45 28.1144 66.0367 27.9132 67.45 27.5109C68.89 27.1086 70.3033 26.5186 71.69 25.7408V17.0109C71.69 15.9918 72.1967 15.3213 73.21 14.9994L73.77 14.8385V14.4362H62.49V14.8385L64.33 15.3213C65.3967 15.5627 65.93 16.2063 65.93 17.2523V25.2178C65.93 25.7006 65.85 26.1163 65.69 26.465C65.53 26.8136 65.1967 27.0282 64.69 27.1086C64.4767 27.1623 64.25 27.2159 64.01 27.2695C63.7967 27.2964 63.57 27.3098 63.33 27.3098C61.7567 27.3098 60.37 26.8672 59.17 25.9822C57.97 25.0703 57.0367 23.6354 56.37 21.6776C55.73 19.7197 55.41 17.1853 55.41 14.0741C55.41 10.9362 55.7567 8.40173 56.45 6.4707C57.1433 4.53966 58.1167 3.13162 59.37 2.24656C60.65 1.3615 62.1167 0.918971 63.77 0.918971C64.3567 0.918971 64.8233 0.959201 65.17 1.03966C65.5433 1.0933 65.9433 1.18717 66.37 1.32127C66.8233 1.48219 67.1967 1.71016 67.49 2.00518C67.7833 2.3002 68.1033 2.78296 68.45 3.45345L70.69 7.63736H71.09L70.93 2.00518C69.8367 1.38832 68.6767 0.918971 67.45 0.597133C66.25 0.275294 64.9433 0.114374 63.53 0.114374C60.4367 0.114374 57.7967 0.704412 55.61 1.88449C53.45 3.03775 51.7967 4.66035 50.65 6.75231C49.5033 8.84426 48.93 11.2849 48.93 14.0741C48.93 16.9439 49.5033 19.4381 50.65 21.5569C51.8233 23.6489 53.4367 25.2715 55.49 26.4247Z"/>
   </symbol>
</svg>




